<mxfile host="app.diagrams.net" modified="2023-12-12T08:50:10.439Z" agent="Mozilla/5.0 (Windows NT 10.0; Win64; x64) AppleWebKit/537.36 (KHTML, like Gecko) Chrome/120.0.0.0 Safari/537.36" etag="yDUfd8lsP9c9Z7attNLI" version="21.7.2" type="device">
  <diagram name="Page-1" id="NgaDI9_pYeMkUgate8u_">
    <mxGraphModel dx="2876" dy="2366" grid="1" gridSize="10" guides="1" tooltips="1" connect="1" arrows="1" fold="1" page="1" pageScale="1" pageWidth="827" pageHeight="1169" math="0" shadow="0">
      <root>
        <mxCell id="0" />
        <mxCell id="1" parent="0" />
        <mxCell id="VTl_a38fpqqt_TvR1LLS-1" value="H_first_app.hpp" style="rounded=1;whiteSpace=wrap;html=1;" vertex="1" parent="1">
          <mxGeometry x="40" y="370" width="120" height="60" as="geometry" />
        </mxCell>
        <mxCell id="VTl_a38fpqqt_TvR1LLS-3" value="H_JCVB_descriptors.hpp" style="rounded=1;whiteSpace=wrap;html=1;" vertex="1" parent="1">
          <mxGeometry x="-650" y="200" width="150" height="60" as="geometry" />
        </mxCell>
        <mxCell id="VTl_a38fpqqt_TvR1LLS-4" value="H_JCVB_device.hpp" style="rounded=1;whiteSpace=wrap;html=1;" vertex="1" parent="1">
          <mxGeometry x="-470" y="200" width="150" height="60" as="geometry" />
        </mxCell>
        <mxCell id="VTl_a38fpqqt_TvR1LLS-6" value="H_JCVB_renderer.hpp" style="rounded=1;whiteSpace=wrap;html=1;" vertex="1" parent="1">
          <mxGeometry x="880" y="200" width="150" height="60" as="geometry" />
        </mxCell>
        <mxCell id="VTl_a38fpqqt_TvR1LLS-7" value="H_JCVB_window.hpp" style="rounded=1;whiteSpace=wrap;html=1;" vertex="1" parent="1">
          <mxGeometry x="1210" y="210" width="150" height="60" as="geometry" />
        </mxCell>
        <mxCell id="VTl_a38fpqqt_TvR1LLS-20" value="H_JCVB_window.hpp" style="rounded=1;whiteSpace=wrap;html=1;" vertex="1" parent="1">
          <mxGeometry x="-470" y="30" width="150" height="60" as="geometry" />
        </mxCell>
        <mxCell id="VTl_a38fpqqt_TvR1LLS-21" value="" style="endArrow=classic;html=1;rounded=0;exitX=0.5;exitY=1;exitDx=0;exitDy=0;entryX=0.5;entryY=0;entryDx=0;entryDy=0;" edge="1" parent="1" source="VTl_a38fpqqt_TvR1LLS-20" target="VTl_a38fpqqt_TvR1LLS-4">
          <mxGeometry width="50" height="50" relative="1" as="geometry">
            <mxPoint x="-420" y="190" as="sourcePoint" />
            <mxPoint x="-370" y="140" as="targetPoint" />
          </mxGeometry>
        </mxCell>
        <mxCell id="VTl_a38fpqqt_TvR1LLS-22" value="H_JCVB_device.hpp" style="rounded=1;whiteSpace=wrap;html=1;" vertex="1" parent="1">
          <mxGeometry x="-650" y="30" width="150" height="60" as="geometry" />
        </mxCell>
        <mxCell id="VTl_a38fpqqt_TvR1LLS-23" value="" style="endArrow=classic;html=1;rounded=0;exitX=0.5;exitY=1;exitDx=0;exitDy=0;" edge="1" parent="1" source="VTl_a38fpqqt_TvR1LLS-22" target="VTl_a38fpqqt_TvR1LLS-3">
          <mxGeometry width="50" height="50" relative="1" as="geometry">
            <mxPoint x="-560" y="170" as="sourcePoint" />
            <mxPoint x="-510" y="120" as="targetPoint" />
          </mxGeometry>
        </mxCell>
        <mxCell id="VTl_a38fpqqt_TvR1LLS-24" value="H_JCVB_window.hpp" style="rounded=1;whiteSpace=wrap;html=1;" vertex="1" parent="1">
          <mxGeometry x="-650" y="-200" width="150" height="60" as="geometry" />
        </mxCell>
        <mxCell id="VTl_a38fpqqt_TvR1LLS-25" value="" style="endArrow=classic;html=1;rounded=0;exitX=0.5;exitY=1;exitDx=0;exitDy=0;entryX=0.5;entryY=0;entryDx=0;entryDy=0;" edge="1" parent="1" source="VTl_a38fpqqt_TvR1LLS-24" target="VTl_a38fpqqt_TvR1LLS-22">
          <mxGeometry width="50" height="50" relative="1" as="geometry">
            <mxPoint x="-790" y="-30" as="sourcePoint" />
            <mxPoint x="-740" y="-80" as="targetPoint" />
          </mxGeometry>
        </mxCell>
        <mxCell id="VTl_a38fpqqt_TvR1LLS-26" value="H_JCVB_device.hpp" style="rounded=1;whiteSpace=wrap;html=1;" vertex="1" parent="1">
          <mxGeometry x="720" y="30" width="150" height="60" as="geometry" />
        </mxCell>
        <mxCell id="VTl_a38fpqqt_TvR1LLS-27" value="H_JCVB_swap_chain.hpp" style="rounded=1;whiteSpace=wrap;html=1;" vertex="1" parent="1">
          <mxGeometry x="880" y="30" width="150" height="60" as="geometry" />
        </mxCell>
        <mxCell id="VTl_a38fpqqt_TvR1LLS-28" value="H_JCVB_window.hpp" style="rounded=1;whiteSpace=wrap;html=1;" vertex="1" parent="1">
          <mxGeometry x="1040" y="30" width="150" height="60" as="geometry" />
        </mxCell>
        <mxCell id="VTl_a38fpqqt_TvR1LLS-29" value="H_JCVB_window.hpp" style="rounded=1;whiteSpace=wrap;html=1;" vertex="1" parent="1">
          <mxGeometry x="720" y="-200" width="150" height="60" as="geometry" />
        </mxCell>
        <mxCell id="VTl_a38fpqqt_TvR1LLS-30" value="" style="endArrow=classic;html=1;rounded=0;exitX=0.5;exitY=1;exitDx=0;exitDy=0;entryX=0.5;entryY=0;entryDx=0;entryDy=0;" edge="1" parent="1" source="VTl_a38fpqqt_TvR1LLS-29" target="VTl_a38fpqqt_TvR1LLS-26">
          <mxGeometry width="50" height="50" relative="1" as="geometry">
            <mxPoint x="830" y="10" as="sourcePoint" />
            <mxPoint x="880" y="-40" as="targetPoint" />
          </mxGeometry>
        </mxCell>
        <mxCell id="VTl_a38fpqqt_TvR1LLS-31" value="H_JCVB_device.hpp" style="rounded=1;whiteSpace=wrap;html=1;" vertex="1" parent="1">
          <mxGeometry x="880" y="-200" width="150" height="60" as="geometry" />
        </mxCell>
        <mxCell id="VTl_a38fpqqt_TvR1LLS-32" value="" style="endArrow=classic;html=1;rounded=0;exitX=0.5;exitY=1;exitDx=0;exitDy=0;entryX=0.5;entryY=0;entryDx=0;entryDy=0;" edge="1" parent="1" source="VTl_a38fpqqt_TvR1LLS-31" target="VTl_a38fpqqt_TvR1LLS-27">
          <mxGeometry width="50" height="50" relative="1" as="geometry">
            <mxPoint x="970" y="-20" as="sourcePoint" />
            <mxPoint x="1020" y="-70" as="targetPoint" />
          </mxGeometry>
        </mxCell>
        <mxCell id="VTl_a38fpqqt_TvR1LLS-33" value="" style="endArrow=classic;html=1;rounded=0;exitX=0.5;exitY=1;exitDx=0;exitDy=0;" edge="1" parent="1" source="VTl_a38fpqqt_TvR1LLS-27" target="VTl_a38fpqqt_TvR1LLS-6">
          <mxGeometry width="50" height="50" relative="1" as="geometry">
            <mxPoint x="920" y="200" as="sourcePoint" />
            <mxPoint x="970" y="150" as="targetPoint" />
          </mxGeometry>
        </mxCell>
        <mxCell id="VTl_a38fpqqt_TvR1LLS-34" value="" style="endArrow=classic;html=1;rounded=0;exitX=0.5;exitY=1;exitDx=0;exitDy=0;entryX=0.25;entryY=0;entryDx=0;entryDy=0;" edge="1" parent="1" source="VTl_a38fpqqt_TvR1LLS-26" target="VTl_a38fpqqt_TvR1LLS-6">
          <mxGeometry width="50" height="50" relative="1" as="geometry">
            <mxPoint x="720" y="200" as="sourcePoint" />
            <mxPoint x="770" y="150" as="targetPoint" />
            <Array as="points">
              <mxPoint x="795" y="160" />
              <mxPoint x="918" y="160" />
            </Array>
          </mxGeometry>
        </mxCell>
        <mxCell id="VTl_a38fpqqt_TvR1LLS-35" value="" style="endArrow=classic;html=1;rounded=0;entryX=0.75;entryY=0;entryDx=0;entryDy=0;" edge="1" parent="1" source="VTl_a38fpqqt_TvR1LLS-28" target="VTl_a38fpqqt_TvR1LLS-6">
          <mxGeometry width="50" height="50" relative="1" as="geometry">
            <mxPoint x="1060" y="200" as="sourcePoint" />
            <mxPoint x="1110" y="150" as="targetPoint" />
            <Array as="points">
              <mxPoint x="1115" y="160" />
              <mxPoint x="993" y="160" />
            </Array>
          </mxGeometry>
        </mxCell>
        <mxCell id="VTl_a38fpqqt_TvR1LLS-40" value="" style="endArrow=classic;html=1;rounded=0;exitX=0.5;exitY=1;exitDx=0;exitDy=0;entryX=0.5;entryY=0;entryDx=0;entryDy=0;" edge="1" parent="1" target="VTl_a38fpqqt_TvR1LLS-1">
          <mxGeometry width="50" height="50" relative="1" as="geometry">
            <mxPoint x="100" y="260" as="sourcePoint" />
            <mxPoint x="80" y="310" as="targetPoint" />
          </mxGeometry>
        </mxCell>
        <mxCell id="VTl_a38fpqqt_TvR1LLS-41" value="" style="endArrow=classic;html=1;rounded=0;exitX=0.5;exitY=1;exitDx=0;exitDy=0;entryX=0.392;entryY=0.017;entryDx=0;entryDy=0;entryPerimeter=0;" edge="1" parent="1" source="VTl_a38fpqqt_TvR1LLS-4" target="VTl_a38fpqqt_TvR1LLS-1">
          <mxGeometry width="50" height="50" relative="1" as="geometry">
            <mxPoint x="-220" y="410" as="sourcePoint" />
            <mxPoint x="-170" y="360" as="targetPoint" />
            <Array as="points">
              <mxPoint x="-395" y="320" />
              <mxPoint x="87" y="320" />
            </Array>
          </mxGeometry>
        </mxCell>
        <mxCell id="VTl_a38fpqqt_TvR1LLS-42" value="" style="endArrow=classic;html=1;rounded=0;exitX=0.5;exitY=1;exitDx=0;exitDy=0;entryX=0.25;entryY=0;entryDx=0;entryDy=0;" edge="1" parent="1" source="VTl_a38fpqqt_TvR1LLS-3" target="VTl_a38fpqqt_TvR1LLS-1">
          <mxGeometry width="50" height="50" relative="1" as="geometry">
            <mxPoint x="-460" y="400" as="sourcePoint" />
            <mxPoint x="-410" y="350" as="targetPoint" />
            <Array as="points">
              <mxPoint x="-575" y="330" />
              <mxPoint x="70" y="330" />
            </Array>
          </mxGeometry>
        </mxCell>
        <mxCell id="VTl_a38fpqqt_TvR1LLS-43" value="" style="endArrow=classic;html=1;rounded=0;exitX=0.5;exitY=1;exitDx=0;exitDy=0;entryX=0.583;entryY=-0.017;entryDx=0;entryDy=0;entryPerimeter=0;" edge="1" parent="1" source="VTl_a38fpqqt_TvR1LLS-6" target="VTl_a38fpqqt_TvR1LLS-1">
          <mxGeometry width="50" height="50" relative="1" as="geometry">
            <mxPoint x="200" y="330" as="sourcePoint" />
            <mxPoint x="250" y="280" as="targetPoint" />
            <Array as="points">
              <mxPoint x="955" y="320" />
              <mxPoint x="110" y="320" />
            </Array>
          </mxGeometry>
        </mxCell>
        <mxCell id="VTl_a38fpqqt_TvR1LLS-44" value="" style="endArrow=classic;html=1;rounded=0;entryX=0.75;entryY=0;entryDx=0;entryDy=0;exitX=0.5;exitY=1;exitDx=0;exitDy=0;" edge="1" parent="1" source="VTl_a38fpqqt_TvR1LLS-7" target="VTl_a38fpqqt_TvR1LLS-1">
          <mxGeometry width="50" height="50" relative="1" as="geometry">
            <mxPoint x="500" y="420" as="sourcePoint" />
            <mxPoint x="550" y="370" as="targetPoint" />
            <Array as="points">
              <mxPoint x="1285" y="330" />
              <mxPoint x="130" y="330" />
            </Array>
          </mxGeometry>
        </mxCell>
        <mxCell id="VTl_a38fpqqt_TvR1LLS-46" value="H_JCVB_buffer.hpp" style="rounded=1;whiteSpace=wrap;html=1;" vertex="1" parent="1">
          <mxGeometry x="1415" y="370" width="120" height="60" as="geometry" />
        </mxCell>
        <mxCell id="VTl_a38fpqqt_TvR1LLS-47" value="H_JCVB_device.hpp" style="rounded=1;whiteSpace=wrap;html=1;" vertex="1" parent="1">
          <mxGeometry x="1415" y="210" width="120" height="60" as="geometry" />
        </mxCell>
        <mxCell id="VTl_a38fpqqt_TvR1LLS-48" value="" style="endArrow=classic;html=1;rounded=0;exitX=0.5;exitY=1;exitDx=0;exitDy=0;" edge="1" parent="1" source="VTl_a38fpqqt_TvR1LLS-47" target="VTl_a38fpqqt_TvR1LLS-46">
          <mxGeometry width="50" height="50" relative="1" as="geometry">
            <mxPoint x="1485" y="360" as="sourcePoint" />
            <mxPoint x="1535" y="310" as="targetPoint" />
          </mxGeometry>
        </mxCell>
        <mxCell id="VTl_a38fpqqt_TvR1LLS-49" value="H_JCVB_window.hpp" style="rounded=1;whiteSpace=wrap;html=1;" vertex="1" parent="1">
          <mxGeometry x="1400" y="30" width="150" height="60" as="geometry" />
        </mxCell>
        <mxCell id="VTl_a38fpqqt_TvR1LLS-50" value="" style="endArrow=classic;html=1;rounded=0;exitX=0.5;exitY=1;exitDx=0;exitDy=0;entryX=0.5;entryY=0;entryDx=0;entryDy=0;" edge="1" parent="1" source="VTl_a38fpqqt_TvR1LLS-49" target="VTl_a38fpqqt_TvR1LLS-47">
          <mxGeometry width="50" height="50" relative="1" as="geometry">
            <mxPoint x="1475" y="150" as="sourcePoint" />
            <mxPoint x="1525" y="100" as="targetPoint" />
          </mxGeometry>
        </mxCell>
        <mxCell id="VTl_a38fpqqt_TvR1LLS-51" value="H_JCVB_camera.hpp" style="rounded=1;whiteSpace=wrap;html=1;" vertex="1" parent="1">
          <mxGeometry x="1584" y="370" width="120" height="60" as="geometry" />
        </mxCell>
        <mxCell id="VTl_a38fpqqt_TvR1LLS-52" value="H_JCVB_component.hpp" style="rounded=1;whiteSpace=wrap;html=1;" vertex="1" parent="1">
          <mxGeometry x="1994" y="370" width="160" height="60" as="geometry" />
        </mxCell>
        <mxCell id="VTl_a38fpqqt_TvR1LLS-68" value="" style="endArrow=classic;html=1;rounded=0;exitX=0.5;exitY=1;exitDx=0;exitDy=0;" edge="1" parent="1" target="VTl_a38fpqqt_TvR1LLS-52">
          <mxGeometry width="50" height="50" relative="1" as="geometry">
            <mxPoint x="2074" y="260" as="sourcePoint" />
            <mxPoint x="1974" y="290" as="targetPoint" />
          </mxGeometry>
        </mxCell>
        <mxCell id="VTl_a38fpqqt_TvR1LLS-69" value="H_JCVB_descriptor.hpp" style="rounded=1;whiteSpace=wrap;html=1;" vertex="1" parent="1">
          <mxGeometry x="2680" y="370" width="160" height="60" as="geometry" />
        </mxCell>
        <mxCell id="VTl_a38fpqqt_TvR1LLS-70" value="" style="endArrow=classic;html=1;rounded=0;entryX=0.5;entryY=0;entryDx=0;entryDy=0;exitX=0.5;exitY=1;exitDx=0;exitDy=0;" edge="1" parent="1" source="VTl_a38fpqqt_TvR1LLS-72" target="VTl_a38fpqqt_TvR1LLS-69">
          <mxGeometry width="50" height="50" relative="1" as="geometry">
            <mxPoint x="2760" y="280" as="sourcePoint" />
            <mxPoint x="2800" y="250" as="targetPoint" />
          </mxGeometry>
        </mxCell>
        <mxCell id="VTl_a38fpqqt_TvR1LLS-72" value="H_JCVB_device.hpp" style="rounded=1;whiteSpace=wrap;html=1;" vertex="1" parent="1">
          <mxGeometry x="2700" y="200" width="120" height="60" as="geometry" />
        </mxCell>
        <mxCell id="VTl_a38fpqqt_TvR1LLS-73" value="H_JCVB_window.hpp" style="rounded=1;whiteSpace=wrap;html=1;" vertex="1" parent="1">
          <mxGeometry x="2685" y="-10" width="150" height="60" as="geometry" />
        </mxCell>
        <mxCell id="VTl_a38fpqqt_TvR1LLS-74" value="" style="endArrow=classic;html=1;rounded=0;exitX=0.5;exitY=1;exitDx=0;exitDy=0;entryX=0.5;entryY=0;entryDx=0;entryDy=0;" edge="1" source="VTl_a38fpqqt_TvR1LLS-73" target="VTl_a38fpqqt_TvR1LLS-72" parent="1">
          <mxGeometry width="50" height="50" relative="1" as="geometry">
            <mxPoint x="2760" y="180" as="sourcePoint" />
            <mxPoint x="2810" y="130" as="targetPoint" />
          </mxGeometry>
        </mxCell>
        <mxCell id="VTl_a38fpqqt_TvR1LLS-75" value="H_JCVB_device.hpp" style="rounded=1;whiteSpace=wrap;html=1;" vertex="1" parent="1">
          <mxGeometry x="2880" y="370" width="160" height="60" as="geometry" />
        </mxCell>
        <mxCell id="VTl_a38fpqqt_TvR1LLS-76" value="H_JCVB_window.hpp" style="rounded=1;whiteSpace=wrap;html=1;" vertex="1" parent="1">
          <mxGeometry x="2885" y="200" width="150" height="60" as="geometry" />
        </mxCell>
        <mxCell id="VTl_a38fpqqt_TvR1LLS-77" value="" style="endArrow=classic;html=1;rounded=0;exitX=0.5;exitY=1;exitDx=0;exitDy=0;" edge="1" parent="1" source="VTl_a38fpqqt_TvR1LLS-76" target="VTl_a38fpqqt_TvR1LLS-75">
          <mxGeometry width="50" height="50" relative="1" as="geometry">
            <mxPoint x="2970" y="370" as="sourcePoint" />
            <mxPoint x="3020" y="320" as="targetPoint" />
          </mxGeometry>
        </mxCell>
        <mxCell id="VTl_a38fpqqt_TvR1LLS-80" value="H_JCVB_frame_info.hpp" style="rounded=1;whiteSpace=wrap;html=1;" vertex="1" parent="1">
          <mxGeometry x="3215" y="370" width="150" height="60" as="geometry" />
        </mxCell>
        <mxCell id="VTl_a38fpqqt_TvR1LLS-85" value="H_JCVB_camera.hpp" style="rounded=1;whiteSpace=wrap;html=1;" vertex="1" parent="1">
          <mxGeometry x="3080" y="200" width="120" height="60" as="geometry" />
        </mxCell>
        <mxCell id="VTl_a38fpqqt_TvR1LLS-86" value="H_JCVB_descriptor.hpp" style="rounded=1;whiteSpace=wrap;html=1;" vertex="1" parent="1">
          <mxGeometry x="3210" y="200" width="160" height="60" as="geometry" />
        </mxCell>
        <mxCell id="VTl_a38fpqqt_TvR1LLS-87" value="" style="endArrow=classic;html=1;rounded=0;entryX=0.5;entryY=0;entryDx=0;entryDy=0;exitX=0.5;exitY=1;exitDx=0;exitDy=0;" edge="1" source="VTl_a38fpqqt_TvR1LLS-88" target="VTl_a38fpqqt_TvR1LLS-86" parent="1">
          <mxGeometry width="50" height="50" relative="1" as="geometry">
            <mxPoint x="3290" y="110" as="sourcePoint" />
            <mxPoint x="3330" y="80" as="targetPoint" />
          </mxGeometry>
        </mxCell>
        <mxCell id="VTl_a38fpqqt_TvR1LLS-88" value="H_JCVB_device.hpp" style="rounded=1;whiteSpace=wrap;html=1;" vertex="1" parent="1">
          <mxGeometry x="3230" y="-10" width="120" height="60" as="geometry" />
        </mxCell>
        <mxCell id="VTl_a38fpqqt_TvR1LLS-89" value="H_JCVB_window.hpp" style="rounded=1;whiteSpace=wrap;html=1;" vertex="1" parent="1">
          <mxGeometry x="3215" y="-200" width="150" height="60" as="geometry" />
        </mxCell>
        <mxCell id="VTl_a38fpqqt_TvR1LLS-90" value="" style="endArrow=classic;html=1;rounded=0;exitX=0.5;exitY=1;exitDx=0;exitDy=0;entryX=0.5;entryY=0;entryDx=0;entryDy=0;" edge="1" source="VTl_a38fpqqt_TvR1LLS-89" target="VTl_a38fpqqt_TvR1LLS-88" parent="1">
          <mxGeometry width="50" height="50" relative="1" as="geometry">
            <mxPoint x="3290" y="10" as="sourcePoint" />
            <mxPoint x="3340" y="-40" as="targetPoint" />
          </mxGeometry>
        </mxCell>
        <mxCell id="VTl_a38fpqqt_TvR1LLS-104" value="" style="endArrow=classic;html=1;rounded=0;exitX=0.5;exitY=1;exitDx=0;exitDy=0;entryX=0.25;entryY=0;entryDx=0;entryDy=0;" edge="1" parent="1" source="VTl_a38fpqqt_TvR1LLS-85" target="VTl_a38fpqqt_TvR1LLS-80">
          <mxGeometry width="50" height="50" relative="1" as="geometry">
            <mxPoint x="3160" y="410" as="sourcePoint" />
            <mxPoint x="3210" y="360" as="targetPoint" />
            <Array as="points">
              <mxPoint x="3140" y="320" />
              <mxPoint x="3250" y="320" />
            </Array>
          </mxGeometry>
        </mxCell>
        <mxCell id="VTl_a38fpqqt_TvR1LLS-105" value="" style="endArrow=classic;html=1;rounded=0;exitX=0.5;exitY=1;exitDx=0;exitDy=0;entryX=0.5;entryY=0;entryDx=0;entryDy=0;" edge="1" parent="1" source="VTl_a38fpqqt_TvR1LLS-86" target="VTl_a38fpqqt_TvR1LLS-80">
          <mxGeometry width="50" height="50" relative="1" as="geometry">
            <mxPoint x="3330" y="360" as="sourcePoint" />
            <mxPoint x="3380" y="310" as="targetPoint" />
          </mxGeometry>
        </mxCell>
        <mxCell id="VTl_a38fpqqt_TvR1LLS-106" value="" style="endArrow=classic;html=1;rounded=0;exitX=0.5;exitY=1;exitDx=0;exitDy=0;entryX=0.75;entryY=0;entryDx=0;entryDy=0;" edge="1" parent="1" source="VTl_a38fpqqt_TvR1LLS-197" target="VTl_a38fpqqt_TvR1LLS-80">
          <mxGeometry width="50" height="50" relative="1" as="geometry">
            <mxPoint x="3700" y="260" as="sourcePoint" />
            <mxPoint x="3560" y="310" as="targetPoint" />
            <Array as="points">
              <mxPoint x="3860" y="320" />
              <mxPoint x="3328" y="320" />
            </Array>
          </mxGeometry>
        </mxCell>
        <mxCell id="VTl_a38fpqqt_TvR1LLS-109" value="H_JCVB_game_object.hpp" style="rounded=1;whiteSpace=wrap;html=1;" vertex="1" parent="1">
          <mxGeometry x="4855" y="370" width="150" height="60" as="geometry" />
        </mxCell>
        <mxCell id="VTl_a38fpqqt_TvR1LLS-110" value="H_JCVB_texture.hpp" style="rounded=1;whiteSpace=wrap;html=1;" vertex="1" parent="1">
          <mxGeometry x="4771" y="200" width="150" height="60" as="geometry" />
        </mxCell>
        <mxCell id="VTl_a38fpqqt_TvR1LLS-111" value="H_JCVB_component.hpp" style="rounded=1;whiteSpace=wrap;html=1;" vertex="1" parent="1">
          <mxGeometry x="4940" y="200" width="150" height="60" as="geometry" />
        </mxCell>
        <mxCell id="VTl_a38fpqqt_TvR1LLS-114" value="H_JCVB_game_object.hpp" style="rounded=1;whiteSpace=wrap;html=1;" vertex="1" parent="1">
          <mxGeometry x="4940" y="-10" width="150" height="60" as="geometry" />
        </mxCell>
        <mxCell id="VTl_a38fpqqt_TvR1LLS-115" value="H_JCVB_device.hpp" style="rounded=1;whiteSpace=wrap;html=1;" vertex="1" parent="1">
          <mxGeometry x="4771" y="-10" width="150" height="60" as="geometry" />
        </mxCell>
        <mxCell id="VTl_a38fpqqt_TvR1LLS-116" value="" style="endArrow=classic;html=1;rounded=0;exitX=0.5;exitY=1;exitDx=0;exitDy=0;" edge="1" parent="1">
          <mxGeometry width="50" height="50" relative="1" as="geometry">
            <mxPoint x="4845" y="50" as="sourcePoint" />
            <mxPoint x="4845" y="200" as="targetPoint" />
          </mxGeometry>
        </mxCell>
        <mxCell id="VTl_a38fpqqt_TvR1LLS-117" value="" style="endArrow=classic;html=1;rounded=0;exitX=0.5;exitY=1;exitDx=0;exitDy=0;" edge="1" source="VTl_a38fpqqt_TvR1LLS-114" target="VTl_a38fpqqt_TvR1LLS-111" parent="1">
          <mxGeometry width="50" height="50" relative="1" as="geometry">
            <mxPoint x="5020" y="130" as="sourcePoint" />
            <mxPoint x="5070" y="80" as="targetPoint" />
          </mxGeometry>
        </mxCell>
        <mxCell id="VTl_a38fpqqt_TvR1LLS-118" value="" style="endArrow=classic;html=1;rounded=0;exitX=0.5;exitY=1;exitDx=0;exitDy=0;" edge="1" parent="1">
          <mxGeometry width="50" height="50" relative="1" as="geometry">
            <mxPoint x="4845" y="260" as="sourcePoint" />
            <mxPoint x="4910" y="370" as="targetPoint" />
            <Array as="points">
              <mxPoint x="4845" y="290" />
              <mxPoint x="4910" y="290" />
            </Array>
          </mxGeometry>
        </mxCell>
        <mxCell id="VTl_a38fpqqt_TvR1LLS-119" value="" style="endArrow=classic;html=1;rounded=0;exitX=0.5;exitY=1;exitDx=0;exitDy=0;" edge="1" source="VTl_a38fpqqt_TvR1LLS-111" parent="1">
          <mxGeometry width="50" height="50" relative="1" as="geometry">
            <mxPoint x="5020" y="320" as="sourcePoint" />
            <mxPoint x="4940" y="370" as="targetPoint" />
            <Array as="points">
              <mxPoint x="5015" y="290" />
              <mxPoint x="4941" y="290" />
            </Array>
          </mxGeometry>
        </mxCell>
        <mxCell id="VTl_a38fpqqt_TvR1LLS-120" value="" style="endArrow=classic;html=1;rounded=0;exitX=0.5;exitY=1;exitDx=0;exitDy=0;entryX=0.25;entryY=0;entryDx=0;entryDy=0;" edge="1" source="VTl_a38fpqqt_TvR1LLS-156" target="VTl_a38fpqqt_TvR1LLS-109" parent="1">
          <mxGeometry width="50" height="50" relative="1" as="geometry">
            <mxPoint x="4685" y="260" as="sourcePoint" />
            <mxPoint x="4700" y="270" as="targetPoint" />
            <Array as="points">
              <mxPoint x="4615" y="310" />
              <mxPoint x="4893" y="310" />
            </Array>
          </mxGeometry>
        </mxCell>
        <mxCell id="VTl_a38fpqqt_TvR1LLS-121" value="" style="endArrow=classic;html=1;rounded=0;exitX=0.5;exitY=1;exitDx=0;exitDy=0;entryX=0.75;entryY=0;entryDx=0;entryDy=0;" edge="1" source="VTl_a38fpqqt_TvR1LLS-143" target="VTl_a38fpqqt_TvR1LLS-109" parent="1">
          <mxGeometry width="50" height="50" relative="1" as="geometry">
            <mxPoint x="5185" y="260" as="sourcePoint" />
            <mxPoint x="5130" y="310" as="targetPoint" />
            <Array as="points">
              <mxPoint x="5265" y="310" />
              <mxPoint x="4968" y="310" />
            </Array>
          </mxGeometry>
        </mxCell>
        <mxCell id="VTl_a38fpqqt_TvR1LLS-122" value="H_JCVB_mesh_renderer.hpp" style="rounded=1;whiteSpace=wrap;html=1;" vertex="1" parent="1">
          <mxGeometry x="5590" y="370" width="170" height="60" as="geometry" />
        </mxCell>
        <mxCell id="VTl_a38fpqqt_TvR1LLS-123" value="" style="endArrow=classic;html=1;rounded=0;entryX=0.25;entryY=0;entryDx=0;entryDy=0;exitX=0.5;exitY=1;exitDx=0;exitDy=0;" edge="1" parent="1" source="VTl_a38fpqqt_TvR1LLS-124" target="VTl_a38fpqqt_TvR1LLS-122">
          <mxGeometry width="50" height="50" relative="1" as="geometry">
            <mxPoint x="5415" y="200" as="sourcePoint" />
            <mxPoint x="5530" y="230" as="targetPoint" />
            <Array as="points">
              <mxPoint x="5595" y="320" />
              <mxPoint x="5630" y="320" />
            </Array>
          </mxGeometry>
        </mxCell>
        <mxCell id="VTl_a38fpqqt_TvR1LLS-124" value="H_JCVB_component.hpp" style="rounded=1;whiteSpace=wrap;html=1;" vertex="1" parent="1">
          <mxGeometry x="5520" y="200" width="150" height="60" as="geometry" />
        </mxCell>
        <mxCell id="VTl_a38fpqqt_TvR1LLS-125" value="H_JCVB_game_object.hpp" style="rounded=1;whiteSpace=wrap;html=1;" vertex="1" parent="1">
          <mxGeometry x="5520" y="-10" width="150" height="60" as="geometry" />
        </mxCell>
        <mxCell id="VTl_a38fpqqt_TvR1LLS-126" value="" style="endArrow=classic;html=1;rounded=0;exitX=0.5;exitY=1;exitDx=0;exitDy=0;entryX=0.5;entryY=0;entryDx=0;entryDy=0;" edge="1" parent="1" source="VTl_a38fpqqt_TvR1LLS-125" target="VTl_a38fpqqt_TvR1LLS-124">
          <mxGeometry width="50" height="50" relative="1" as="geometry">
            <mxPoint x="5500" y="170" as="sourcePoint" />
            <mxPoint x="5550" y="120" as="targetPoint" />
          </mxGeometry>
        </mxCell>
        <mxCell id="VTl_a38fpqqt_TvR1LLS-127" value="H_JCVB_model.hpp" style="rounded=1;whiteSpace=wrap;html=1;" vertex="1" parent="1">
          <mxGeometry x="6090" y="370" width="170" height="60" as="geometry" />
        </mxCell>
        <mxCell id="VTl_a38fpqqt_TvR1LLS-128" value="H_JCVB_buffer.hpp" style="rounded=1;whiteSpace=wrap;html=1;" vertex="1" parent="1">
          <mxGeometry x="6020" y="200" width="150" height="60" as="geometry" />
        </mxCell>
        <mxCell id="VTl_a38fpqqt_TvR1LLS-130" value="H_JCVB_device.hpp" style="rounded=1;whiteSpace=wrap;html=1;" vertex="1" parent="1">
          <mxGeometry x="6185" y="200" width="120" height="60" as="geometry" />
        </mxCell>
        <mxCell id="VTl_a38fpqqt_TvR1LLS-131" value="H_JCVB_window.hpp" style="rounded=1;whiteSpace=wrap;html=1;" vertex="1" parent="1">
          <mxGeometry x="6170" y="-10" width="150" height="60" as="geometry" />
        </mxCell>
        <mxCell id="VTl_a38fpqqt_TvR1LLS-132" value="" style="endArrow=classic;html=1;rounded=0;exitX=0.5;exitY=1;exitDx=0;exitDy=0;entryX=0.5;entryY=0;entryDx=0;entryDy=0;" edge="1" source="VTl_a38fpqqt_TvR1LLS-131" target="VTl_a38fpqqt_TvR1LLS-130" parent="1">
          <mxGeometry width="50" height="50" relative="1" as="geometry">
            <mxPoint x="6245" y="220" as="sourcePoint" />
            <mxPoint x="6295" y="170" as="targetPoint" />
          </mxGeometry>
        </mxCell>
        <mxCell id="VTl_a38fpqqt_TvR1LLS-133" value="" style="endArrow=classic;html=1;rounded=0;exitX=0.5;exitY=1;exitDx=0;exitDy=0;entryX=0.25;entryY=0;entryDx=0;entryDy=0;" edge="1" parent="1" source="VTl_a38fpqqt_TvR1LLS-128" target="VTl_a38fpqqt_TvR1LLS-127">
          <mxGeometry width="50" height="50" relative="1" as="geometry">
            <mxPoint x="6130" y="360" as="sourcePoint" />
            <mxPoint x="6180" y="310" as="targetPoint" />
            <Array as="points">
              <mxPoint x="6095" y="280" />
              <mxPoint x="6133" y="280" />
            </Array>
          </mxGeometry>
        </mxCell>
        <mxCell id="VTl_a38fpqqt_TvR1LLS-134" value="" style="endArrow=classic;html=1;rounded=0;exitX=0.5;exitY=1;exitDx=0;exitDy=0;entryX=0.75;entryY=0;entryDx=0;entryDy=0;" edge="1" parent="1" source="VTl_a38fpqqt_TvR1LLS-130" target="VTl_a38fpqqt_TvR1LLS-127">
          <mxGeometry width="50" height="50" relative="1" as="geometry">
            <mxPoint x="6220" y="360" as="sourcePoint" />
            <mxPoint x="6270" y="310" as="targetPoint" />
            <Array as="points">
              <mxPoint x="6245" y="280" />
              <mxPoint x="6218" y="280" />
            </Array>
          </mxGeometry>
        </mxCell>
        <mxCell id="VTl_a38fpqqt_TvR1LLS-135" value="H_JCVB_model.hpp" style="rounded=1;whiteSpace=wrap;html=1;" vertex="1" parent="1">
          <mxGeometry x="5760" y="200" width="170" height="60" as="geometry" />
        </mxCell>
        <mxCell id="VTl_a38fpqqt_TvR1LLS-136" value="H_JCVB_buffer.hpp" style="rounded=1;whiteSpace=wrap;html=1;" vertex="1" parent="1">
          <mxGeometry x="5690" y="-10" width="150" height="60" as="geometry" />
        </mxCell>
        <mxCell id="VTl_a38fpqqt_TvR1LLS-137" value="H_JCVB_device.hpp" style="rounded=1;whiteSpace=wrap;html=1;" vertex="1" parent="1">
          <mxGeometry x="5855" y="-10" width="120" height="60" as="geometry" />
        </mxCell>
        <mxCell id="VTl_a38fpqqt_TvR1LLS-138" value="H_JCVB_window.hpp" style="rounded=1;whiteSpace=wrap;html=1;" vertex="1" parent="1">
          <mxGeometry x="5840" y="-180" width="150" height="60" as="geometry" />
        </mxCell>
        <mxCell id="VTl_a38fpqqt_TvR1LLS-139" value="" style="endArrow=classic;html=1;rounded=0;exitX=0.5;exitY=1;exitDx=0;exitDy=0;entryX=0.5;entryY=0;entryDx=0;entryDy=0;" edge="1" source="VTl_a38fpqqt_TvR1LLS-138" target="VTl_a38fpqqt_TvR1LLS-137" parent="1">
          <mxGeometry width="50" height="50" relative="1" as="geometry">
            <mxPoint x="5835" y="50" as="sourcePoint" />
            <mxPoint x="5885" as="targetPoint" />
          </mxGeometry>
        </mxCell>
        <mxCell id="VTl_a38fpqqt_TvR1LLS-140" value="" style="endArrow=classic;html=1;rounded=0;exitX=0.5;exitY=1;exitDx=0;exitDy=0;entryX=0.25;entryY=0;entryDx=0;entryDy=0;" edge="1" source="VTl_a38fpqqt_TvR1LLS-136" target="VTl_a38fpqqt_TvR1LLS-135" parent="1">
          <mxGeometry width="50" height="50" relative="1" as="geometry">
            <mxPoint x="5800" y="190" as="sourcePoint" />
            <mxPoint x="5850" y="140" as="targetPoint" />
            <Array as="points">
              <mxPoint x="5765" y="110" />
              <mxPoint x="5803" y="110" />
            </Array>
          </mxGeometry>
        </mxCell>
        <mxCell id="VTl_a38fpqqt_TvR1LLS-141" value="" style="endArrow=classic;html=1;rounded=0;exitX=0.5;exitY=1;exitDx=0;exitDy=0;entryX=0.75;entryY=0;entryDx=0;entryDy=0;" edge="1" source="VTl_a38fpqqt_TvR1LLS-137" target="VTl_a38fpqqt_TvR1LLS-135" parent="1">
          <mxGeometry width="50" height="50" relative="1" as="geometry">
            <mxPoint x="5890" y="190" as="sourcePoint" />
            <mxPoint x="5940" y="140" as="targetPoint" />
            <Array as="points">
              <mxPoint x="5915" y="110" />
              <mxPoint x="5888" y="110" />
            </Array>
          </mxGeometry>
        </mxCell>
        <mxCell id="VTl_a38fpqqt_TvR1LLS-142" value="" style="endArrow=classic;html=1;rounded=0;entryX=0.75;entryY=0;entryDx=0;entryDy=0;" edge="1" parent="1" source="VTl_a38fpqqt_TvR1LLS-135" target="VTl_a38fpqqt_TvR1LLS-122">
          <mxGeometry width="50" height="50" relative="1" as="geometry">
            <mxPoint x="5710" y="350" as="sourcePoint" />
            <mxPoint x="5760" y="300" as="targetPoint" />
            <Array as="points">
              <mxPoint x="5845" y="320" />
              <mxPoint x="5718" y="320" />
            </Array>
          </mxGeometry>
        </mxCell>
        <mxCell id="VTl_a38fpqqt_TvR1LLS-143" value="H_JCVB_mesh_renderer.hpp" style="rounded=1;whiteSpace=wrap;html=1;" vertex="1" parent="1">
          <mxGeometry x="5180" y="200" width="170" height="60" as="geometry" />
        </mxCell>
        <mxCell id="VTl_a38fpqqt_TvR1LLS-144" value="" style="endArrow=classic;html=1;rounded=0;entryX=0.293;entryY=0.045;entryDx=0;entryDy=0;exitX=0.5;exitY=1;exitDx=0;exitDy=0;entryPerimeter=0;" edge="1" source="VTl_a38fpqqt_TvR1LLS-145" target="VTl_a38fpqqt_TvR1LLS-143" parent="1">
          <mxGeometry width="50" height="50" relative="1" as="geometry">
            <mxPoint x="5105" y="30" as="sourcePoint" />
            <mxPoint x="5220" y="60" as="targetPoint" />
            <Array as="points">
              <mxPoint x="5185" y="150" />
              <mxPoint x="5230" y="150" />
            </Array>
          </mxGeometry>
        </mxCell>
        <mxCell id="VTl_a38fpqqt_TvR1LLS-145" value="H_JCVB_component.hpp" style="rounded=1;whiteSpace=wrap;html=1;" vertex="1" parent="1">
          <mxGeometry x="5110" y="-10" width="150" height="60" as="geometry" />
        </mxCell>
        <mxCell id="VTl_a38fpqqt_TvR1LLS-146" value="H_JCVB_game_object.hpp" style="rounded=1;whiteSpace=wrap;html=1;" vertex="1" parent="1">
          <mxGeometry x="5030" y="-200" width="150" height="60" as="geometry" />
        </mxCell>
        <mxCell id="VTl_a38fpqqt_TvR1LLS-147" value="" style="endArrow=classic;html=1;rounded=0;exitX=0.5;exitY=1;exitDx=0;exitDy=0;entryX=0.5;entryY=0;entryDx=0;entryDy=0;" edge="1" source="VTl_a38fpqqt_TvR1LLS-146" target="VTl_a38fpqqt_TvR1LLS-145" parent="1">
          <mxGeometry width="50" height="50" relative="1" as="geometry">
            <mxPoint x="5190" as="sourcePoint" />
            <mxPoint x="5240" y="-50" as="targetPoint" />
            <Array as="points">
              <mxPoint x="5105" y="-80" />
              <mxPoint x="5185" y="-80" />
            </Array>
          </mxGeometry>
        </mxCell>
        <mxCell id="VTl_a38fpqqt_TvR1LLS-148" value="H_JCVB_model.hpp" style="rounded=1;whiteSpace=wrap;html=1;" vertex="1" parent="1">
          <mxGeometry x="5270" y="30" width="170" height="60" as="geometry" />
        </mxCell>
        <mxCell id="VTl_a38fpqqt_TvR1LLS-149" value="H_JCVB_buffer.hpp" style="rounded=1;whiteSpace=wrap;html=1;" vertex="1" parent="1">
          <mxGeometry x="5200" y="-200" width="150" height="60" as="geometry" />
        </mxCell>
        <mxCell id="VTl_a38fpqqt_TvR1LLS-150" value="H_JCVB_device.hpp" style="rounded=1;whiteSpace=wrap;html=1;" vertex="1" parent="1">
          <mxGeometry x="5365" y="-200" width="120" height="60" as="geometry" />
        </mxCell>
        <mxCell id="VTl_a38fpqqt_TvR1LLS-151" value="H_JCVB_window.hpp" style="rounded=1;whiteSpace=wrap;html=1;" vertex="1" parent="1">
          <mxGeometry x="5350" y="-350" width="150" height="60" as="geometry" />
        </mxCell>
        <mxCell id="VTl_a38fpqqt_TvR1LLS-152" value="" style="endArrow=classic;html=1;rounded=0;exitX=0.5;exitY=1;exitDx=0;exitDy=0;entryX=0.5;entryY=0;entryDx=0;entryDy=0;" edge="1" source="VTl_a38fpqqt_TvR1LLS-151" parent="1">
          <mxGeometry width="50" height="50" relative="1" as="geometry">
            <mxPoint x="5165" y="-120" as="sourcePoint" />
            <mxPoint x="5425.000000000001" y="-200" as="targetPoint" />
          </mxGeometry>
        </mxCell>
        <mxCell id="VTl_a38fpqqt_TvR1LLS-153" value="" style="endArrow=classic;html=1;rounded=0;exitX=0.5;exitY=1;exitDx=0;exitDy=0;entryX=0.25;entryY=0;entryDx=0;entryDy=0;" edge="1" source="VTl_a38fpqqt_TvR1LLS-149" target="VTl_a38fpqqt_TvR1LLS-148" parent="1">
          <mxGeometry width="50" height="50" relative="1" as="geometry">
            <mxPoint x="5310" y="20" as="sourcePoint" />
            <mxPoint x="5360" y="-30" as="targetPoint" />
            <Array as="points">
              <mxPoint x="5275" y="-60" />
              <mxPoint x="5313" y="-60" />
            </Array>
          </mxGeometry>
        </mxCell>
        <mxCell id="VTl_a38fpqqt_TvR1LLS-154" value="" style="endArrow=classic;html=1;rounded=0;exitX=0.5;exitY=1;exitDx=0;exitDy=0;entryX=0.75;entryY=0;entryDx=0;entryDy=0;" edge="1" target="VTl_a38fpqqt_TvR1LLS-148" parent="1">
          <mxGeometry width="50" height="50" relative="1" as="geometry">
            <mxPoint x="5425.000000000001" y="-140" as="sourcePoint" />
            <mxPoint x="5450" y="-30" as="targetPoint" />
            <Array as="points">
              <mxPoint x="5425" y="-60" />
              <mxPoint x="5398" y="-60" />
            </Array>
          </mxGeometry>
        </mxCell>
        <mxCell id="VTl_a38fpqqt_TvR1LLS-155" value="" style="endArrow=classic;html=1;rounded=0;entryX=0.75;entryY=0;entryDx=0;entryDy=0;" edge="1" source="VTl_a38fpqqt_TvR1LLS-148" target="VTl_a38fpqqt_TvR1LLS-143" parent="1">
          <mxGeometry width="50" height="50" relative="1" as="geometry">
            <mxPoint x="5220" y="180" as="sourcePoint" />
            <mxPoint x="5270" y="130" as="targetPoint" />
            <Array as="points">
              <mxPoint x="5355" y="150" />
              <mxPoint x="5308" y="150" />
            </Array>
          </mxGeometry>
        </mxCell>
        <mxCell id="VTl_a38fpqqt_TvR1LLS-156" value="H_JCVB_model.hpp" style="rounded=1;whiteSpace=wrap;html=1;" vertex="1" parent="1">
          <mxGeometry x="4530" y="200" width="170" height="60" as="geometry" />
        </mxCell>
        <mxCell id="VTl_a38fpqqt_TvR1LLS-157" value="H_JCVB_buffer.hpp" style="rounded=1;whiteSpace=wrap;html=1;" vertex="1" parent="1">
          <mxGeometry x="4460" y="-10" width="150" height="60" as="geometry" />
        </mxCell>
        <mxCell id="VTl_a38fpqqt_TvR1LLS-158" value="H_JCVB_device.hpp" style="rounded=1;whiteSpace=wrap;html=1;" vertex="1" parent="1">
          <mxGeometry x="4625" y="-10" width="120" height="60" as="geometry" />
        </mxCell>
        <mxCell id="VTl_a38fpqqt_TvR1LLS-159" value="H_JCVB_window.hpp" style="rounded=1;whiteSpace=wrap;html=1;" vertex="1" parent="1">
          <mxGeometry x="4601" y="-200" width="150" height="60" as="geometry" />
        </mxCell>
        <mxCell id="VTl_a38fpqqt_TvR1LLS-160" value="" style="endArrow=classic;html=1;rounded=0;exitX=0.5;exitY=1;exitDx=0;exitDy=0;entryX=0.5;entryY=0;entryDx=0;entryDy=0;" edge="1" source="VTl_a38fpqqt_TvR1LLS-159" target="VTl_a38fpqqt_TvR1LLS-158" parent="1">
          <mxGeometry width="50" height="50" relative="1" as="geometry">
            <mxPoint x="4536" y="10" as="sourcePoint" />
            <mxPoint x="4586" y="-40" as="targetPoint" />
          </mxGeometry>
        </mxCell>
        <mxCell id="VTl_a38fpqqt_TvR1LLS-161" value="" style="endArrow=classic;html=1;rounded=0;exitX=0.5;exitY=1;exitDx=0;exitDy=0;entryX=0.25;entryY=0;entryDx=0;entryDy=0;" edge="1" source="VTl_a38fpqqt_TvR1LLS-157" target="VTl_a38fpqqt_TvR1LLS-156" parent="1">
          <mxGeometry width="50" height="50" relative="1" as="geometry">
            <mxPoint x="4570" y="150" as="sourcePoint" />
            <mxPoint x="4620" y="100" as="targetPoint" />
            <Array as="points">
              <mxPoint x="4535" y="70" />
              <mxPoint x="4573" y="70" />
            </Array>
          </mxGeometry>
        </mxCell>
        <mxCell id="VTl_a38fpqqt_TvR1LLS-162" value="" style="endArrow=classic;html=1;rounded=0;exitX=0.5;exitY=1;exitDx=0;exitDy=0;entryX=0.75;entryY=0;entryDx=0;entryDy=0;" edge="1" source="VTl_a38fpqqt_TvR1LLS-158" target="VTl_a38fpqqt_TvR1LLS-156" parent="1">
          <mxGeometry width="50" height="50" relative="1" as="geometry">
            <mxPoint x="4660" y="150" as="sourcePoint" />
            <mxPoint x="4710" y="100" as="targetPoint" />
            <Array as="points">
              <mxPoint x="4685" y="70" />
              <mxPoint x="4658" y="70" />
            </Array>
          </mxGeometry>
        </mxCell>
        <mxCell id="VTl_a38fpqqt_TvR1LLS-163" value="H_JCVB_window.hpp" style="rounded=1;whiteSpace=wrap;html=1;" vertex="1" parent="1">
          <mxGeometry x="4771" y="-200" width="150" height="60" as="geometry" />
        </mxCell>
        <mxCell id="VTl_a38fpqqt_TvR1LLS-164" value="" style="endArrow=classic;html=1;rounded=0;exitX=0.5;exitY=1;exitDx=0;exitDy=0;" edge="1" parent="1" source="VTl_a38fpqqt_TvR1LLS-163" target="VTl_a38fpqqt_TvR1LLS-115">
          <mxGeometry width="50" height="50" relative="1" as="geometry">
            <mxPoint x="4781" y="-40" as="sourcePoint" />
            <mxPoint x="4831" y="-90" as="targetPoint" />
          </mxGeometry>
        </mxCell>
        <mxCell id="VTl_a38fpqqt_TvR1LLS-197" value="H_JCVB_game_object.hpp" style="rounded=1;whiteSpace=wrap;html=1;" vertex="1" parent="1">
          <mxGeometry x="3785" y="200" width="150" height="60" as="geometry" />
        </mxCell>
        <mxCell id="VTl_a38fpqqt_TvR1LLS-198" value="H_JCVB_texture.hpp" style="rounded=1;whiteSpace=wrap;html=1;" vertex="1" parent="1">
          <mxGeometry x="3701" y="30" width="150" height="60" as="geometry" />
        </mxCell>
        <mxCell id="VTl_a38fpqqt_TvR1LLS-199" value="H_JCVB_component.hpp" style="rounded=1;whiteSpace=wrap;html=1;" vertex="1" parent="1">
          <mxGeometry x="3870" y="30" width="150" height="60" as="geometry" />
        </mxCell>
        <mxCell id="VTl_a38fpqqt_TvR1LLS-200" value="H_JCVB_game_object.hpp" style="rounded=1;whiteSpace=wrap;html=1;" vertex="1" parent="1">
          <mxGeometry x="3870" y="-200" width="150" height="60" as="geometry" />
        </mxCell>
        <mxCell id="VTl_a38fpqqt_TvR1LLS-201" value="H_JCVB_device.hpp" style="rounded=1;whiteSpace=wrap;html=1;" vertex="1" parent="1">
          <mxGeometry x="3701" y="-200" width="150" height="60" as="geometry" />
        </mxCell>
        <mxCell id="VTl_a38fpqqt_TvR1LLS-202" value="" style="endArrow=classic;html=1;rounded=0;exitX=0.5;exitY=1;exitDx=0;exitDy=0;" edge="1" parent="1">
          <mxGeometry width="50" height="50" relative="1" as="geometry">
            <mxPoint x="3775" y="-120" as="sourcePoint" />
            <mxPoint x="3775" y="30" as="targetPoint" />
          </mxGeometry>
        </mxCell>
        <mxCell id="VTl_a38fpqqt_TvR1LLS-203" value="" style="endArrow=classic;html=1;rounded=0;exitX=0.5;exitY=1;exitDx=0;exitDy=0;" edge="1" source="VTl_a38fpqqt_TvR1LLS-200" target="VTl_a38fpqqt_TvR1LLS-199" parent="1">
          <mxGeometry width="50" height="50" relative="1" as="geometry">
            <mxPoint x="3950" y="-40" as="sourcePoint" />
            <mxPoint x="4000" y="-90" as="targetPoint" />
          </mxGeometry>
        </mxCell>
        <mxCell id="VTl_a38fpqqt_TvR1LLS-204" value="" style="endArrow=classic;html=1;rounded=0;exitX=0.5;exitY=1;exitDx=0;exitDy=0;" edge="1" parent="1">
          <mxGeometry width="50" height="50" relative="1" as="geometry">
            <mxPoint x="3775" y="90" as="sourcePoint" />
            <mxPoint x="3840" y="200" as="targetPoint" />
            <Array as="points">
              <mxPoint x="3775" y="120" />
              <mxPoint x="3840" y="120" />
            </Array>
          </mxGeometry>
        </mxCell>
        <mxCell id="VTl_a38fpqqt_TvR1LLS-205" value="" style="endArrow=classic;html=1;rounded=0;exitX=0.5;exitY=1;exitDx=0;exitDy=0;" edge="1" source="VTl_a38fpqqt_TvR1LLS-199" parent="1">
          <mxGeometry width="50" height="50" relative="1" as="geometry">
            <mxPoint x="3950" y="150" as="sourcePoint" />
            <mxPoint x="3870" y="200" as="targetPoint" />
            <Array as="points">
              <mxPoint x="3945" y="120" />
              <mxPoint x="3871" y="120" />
            </Array>
          </mxGeometry>
        </mxCell>
        <mxCell id="VTl_a38fpqqt_TvR1LLS-206" value="" style="endArrow=classic;html=1;rounded=0;exitX=0.5;exitY=1;exitDx=0;exitDy=0;entryX=0.25;entryY=0;entryDx=0;entryDy=0;" edge="1" source="VTl_a38fpqqt_TvR1LLS-221" target="VTl_a38fpqqt_TvR1LLS-197" parent="1">
          <mxGeometry width="50" height="50" relative="1" as="geometry">
            <mxPoint x="3615" y="90" as="sourcePoint" />
            <mxPoint x="3630" y="100" as="targetPoint" />
            <Array as="points">
              <mxPoint x="3545" y="140" />
              <mxPoint x="3823" y="140" />
            </Array>
          </mxGeometry>
        </mxCell>
        <mxCell id="VTl_a38fpqqt_TvR1LLS-207" value="" style="endArrow=classic;html=1;rounded=0;exitX=0.5;exitY=1;exitDx=0;exitDy=0;entryX=0.75;entryY=0;entryDx=0;entryDy=0;" edge="1" source="VTl_a38fpqqt_TvR1LLS-208" target="VTl_a38fpqqt_TvR1LLS-197" parent="1">
          <mxGeometry width="50" height="50" relative="1" as="geometry">
            <mxPoint x="4115" y="90" as="sourcePoint" />
            <mxPoint x="4060" y="140" as="targetPoint" />
            <Array as="points">
              <mxPoint x="4195" y="140" />
              <mxPoint x="3898" y="140" />
            </Array>
          </mxGeometry>
        </mxCell>
        <mxCell id="VTl_a38fpqqt_TvR1LLS-208" value="H_JCVB_mesh_renderer.hpp" style="rounded=1;whiteSpace=wrap;html=1;" vertex="1" parent="1">
          <mxGeometry x="4110" y="30" width="170" height="60" as="geometry" />
        </mxCell>
        <mxCell id="VTl_a38fpqqt_TvR1LLS-209" value="" style="endArrow=classic;html=1;rounded=0;entryX=0.293;entryY=0.045;entryDx=0;entryDy=0;exitX=0.5;exitY=1;exitDx=0;exitDy=0;entryPerimeter=0;" edge="1" source="VTl_a38fpqqt_TvR1LLS-210" target="VTl_a38fpqqt_TvR1LLS-208" parent="1">
          <mxGeometry width="50" height="50" relative="1" as="geometry">
            <mxPoint x="4035" y="-140" as="sourcePoint" />
            <mxPoint x="4150" y="-110" as="targetPoint" />
            <Array as="points">
              <mxPoint x="4115" y="-20" />
              <mxPoint x="4160" y="-20" />
            </Array>
          </mxGeometry>
        </mxCell>
        <mxCell id="VTl_a38fpqqt_TvR1LLS-210" value="H_JCVB_component.hpp" style="rounded=1;whiteSpace=wrap;html=1;" vertex="1" parent="1">
          <mxGeometry x="4040" y="-200" width="150" height="60" as="geometry" />
        </mxCell>
        <mxCell id="VTl_a38fpqqt_TvR1LLS-211" value="H_JCVB_game_object.hpp" style="rounded=1;whiteSpace=wrap;html=1;" vertex="1" parent="1">
          <mxGeometry x="3960" y="-370" width="150" height="60" as="geometry" />
        </mxCell>
        <mxCell id="VTl_a38fpqqt_TvR1LLS-212" value="" style="endArrow=classic;html=1;rounded=0;exitX=0.5;exitY=1;exitDx=0;exitDy=0;entryX=0.5;entryY=0;entryDx=0;entryDy=0;" edge="1" source="VTl_a38fpqqt_TvR1LLS-211" target="VTl_a38fpqqt_TvR1LLS-210" parent="1">
          <mxGeometry width="50" height="50" relative="1" as="geometry">
            <mxPoint x="4120" y="-170" as="sourcePoint" />
            <mxPoint x="4170" y="-220" as="targetPoint" />
            <Array as="points">
              <mxPoint x="4035" y="-250" />
              <mxPoint x="4115" y="-250" />
            </Array>
          </mxGeometry>
        </mxCell>
        <mxCell id="VTl_a38fpqqt_TvR1LLS-213" value="H_JCVB_model.hpp" style="rounded=1;whiteSpace=wrap;html=1;" vertex="1" parent="1">
          <mxGeometry x="4200" y="-200" width="170" height="60" as="geometry" />
        </mxCell>
        <mxCell id="VTl_a38fpqqt_TvR1LLS-214" value="H_JCVB_buffer.hpp" style="rounded=1;whiteSpace=wrap;html=1;" vertex="1" parent="1">
          <mxGeometry x="4130" y="-370" width="150" height="60" as="geometry" />
        </mxCell>
        <mxCell id="VTl_a38fpqqt_TvR1LLS-215" value="H_JCVB_device.hpp" style="rounded=1;whiteSpace=wrap;html=1;" vertex="1" parent="1">
          <mxGeometry x="4295" y="-370" width="120" height="60" as="geometry" />
        </mxCell>
        <mxCell id="VTl_a38fpqqt_TvR1LLS-216" value="H_JCVB_window.hpp" style="rounded=1;whiteSpace=wrap;html=1;" vertex="1" parent="1">
          <mxGeometry x="4280" y="-520" width="150" height="60" as="geometry" />
        </mxCell>
        <mxCell id="VTl_a38fpqqt_TvR1LLS-217" value="" style="endArrow=classic;html=1;rounded=0;exitX=0.5;exitY=1;exitDx=0;exitDy=0;entryX=0.5;entryY=0;entryDx=0;entryDy=0;" edge="1" source="VTl_a38fpqqt_TvR1LLS-216" parent="1">
          <mxGeometry width="50" height="50" relative="1" as="geometry">
            <mxPoint x="4095" y="-290" as="sourcePoint" />
            <mxPoint x="4355.000000000001" y="-370" as="targetPoint" />
          </mxGeometry>
        </mxCell>
        <mxCell id="VTl_a38fpqqt_TvR1LLS-218" value="" style="endArrow=classic;html=1;rounded=0;exitX=0.5;exitY=1;exitDx=0;exitDy=0;entryX=0.25;entryY=0;entryDx=0;entryDy=0;" edge="1" source="VTl_a38fpqqt_TvR1LLS-214" target="VTl_a38fpqqt_TvR1LLS-213" parent="1">
          <mxGeometry width="50" height="50" relative="1" as="geometry">
            <mxPoint x="4240" y="-150" as="sourcePoint" />
            <mxPoint x="4290" y="-200" as="targetPoint" />
            <Array as="points">
              <mxPoint x="4205" y="-230" />
              <mxPoint x="4243" y="-230" />
            </Array>
          </mxGeometry>
        </mxCell>
        <mxCell id="VTl_a38fpqqt_TvR1LLS-219" value="" style="endArrow=classic;html=1;rounded=0;exitX=0.5;exitY=1;exitDx=0;exitDy=0;entryX=0.75;entryY=0;entryDx=0;entryDy=0;" edge="1" target="VTl_a38fpqqt_TvR1LLS-213" parent="1">
          <mxGeometry width="50" height="50" relative="1" as="geometry">
            <mxPoint x="4355.000000000001" y="-310" as="sourcePoint" />
            <mxPoint x="4380" y="-200" as="targetPoint" />
            <Array as="points">
              <mxPoint x="4355" y="-230" />
              <mxPoint x="4328" y="-230" />
            </Array>
          </mxGeometry>
        </mxCell>
        <mxCell id="VTl_a38fpqqt_TvR1LLS-220" value="" style="endArrow=classic;html=1;rounded=0;entryX=0.75;entryY=0;entryDx=0;entryDy=0;" edge="1" source="VTl_a38fpqqt_TvR1LLS-213" target="VTl_a38fpqqt_TvR1LLS-208" parent="1">
          <mxGeometry width="50" height="50" relative="1" as="geometry">
            <mxPoint x="4150" y="10" as="sourcePoint" />
            <mxPoint x="4200" y="-40" as="targetPoint" />
            <Array as="points">
              <mxPoint x="4285" y="-20" />
              <mxPoint x="4238" y="-20" />
            </Array>
          </mxGeometry>
        </mxCell>
        <mxCell id="VTl_a38fpqqt_TvR1LLS-221" value="H_JCVB_model.hpp" style="rounded=1;whiteSpace=wrap;html=1;" vertex="1" parent="1">
          <mxGeometry x="3460" y="30" width="170" height="60" as="geometry" />
        </mxCell>
        <mxCell id="VTl_a38fpqqt_TvR1LLS-222" value="H_JCVB_buffer.hpp" style="rounded=1;whiteSpace=wrap;html=1;" vertex="1" parent="1">
          <mxGeometry x="3390" y="-200" width="150" height="60" as="geometry" />
        </mxCell>
        <mxCell id="VTl_a38fpqqt_TvR1LLS-223" value="H_JCVB_device.hpp" style="rounded=1;whiteSpace=wrap;html=1;" vertex="1" parent="1">
          <mxGeometry x="3555" y="-200" width="120" height="60" as="geometry" />
        </mxCell>
        <mxCell id="VTl_a38fpqqt_TvR1LLS-224" value="H_JCVB_window.hpp" style="rounded=1;whiteSpace=wrap;html=1;" vertex="1" parent="1">
          <mxGeometry x="3531" y="-370" width="150" height="60" as="geometry" />
        </mxCell>
        <mxCell id="VTl_a38fpqqt_TvR1LLS-225" value="" style="endArrow=classic;html=1;rounded=0;exitX=0.5;exitY=1;exitDx=0;exitDy=0;entryX=0.5;entryY=0;entryDx=0;entryDy=0;" edge="1" source="VTl_a38fpqqt_TvR1LLS-224" target="VTl_a38fpqqt_TvR1LLS-223" parent="1">
          <mxGeometry width="50" height="50" relative="1" as="geometry">
            <mxPoint x="3466" y="-160" as="sourcePoint" />
            <mxPoint x="3516" y="-210" as="targetPoint" />
          </mxGeometry>
        </mxCell>
        <mxCell id="VTl_a38fpqqt_TvR1LLS-226" value="" style="endArrow=classic;html=1;rounded=0;exitX=0.5;exitY=1;exitDx=0;exitDy=0;entryX=0.25;entryY=0;entryDx=0;entryDy=0;" edge="1" source="VTl_a38fpqqt_TvR1LLS-222" target="VTl_a38fpqqt_TvR1LLS-221" parent="1">
          <mxGeometry width="50" height="50" relative="1" as="geometry">
            <mxPoint x="3500" y="-20" as="sourcePoint" />
            <mxPoint x="3550" y="-70" as="targetPoint" />
            <Array as="points">
              <mxPoint x="3465" y="-100" />
              <mxPoint x="3503" y="-100" />
            </Array>
          </mxGeometry>
        </mxCell>
        <mxCell id="VTl_a38fpqqt_TvR1LLS-227" value="" style="endArrow=classic;html=1;rounded=0;exitX=0.5;exitY=1;exitDx=0;exitDy=0;entryX=0.75;entryY=0;entryDx=0;entryDy=0;" edge="1" source="VTl_a38fpqqt_TvR1LLS-223" target="VTl_a38fpqqt_TvR1LLS-221" parent="1">
          <mxGeometry width="50" height="50" relative="1" as="geometry">
            <mxPoint x="3590" y="-20" as="sourcePoint" />
            <mxPoint x="3640" y="-70" as="targetPoint" />
            <Array as="points">
              <mxPoint x="3615" y="-100" />
              <mxPoint x="3588" y="-100" />
            </Array>
          </mxGeometry>
        </mxCell>
        <mxCell id="VTl_a38fpqqt_TvR1LLS-228" value="H_JCVB_window.hpp" style="rounded=1;whiteSpace=wrap;html=1;" vertex="1" parent="1">
          <mxGeometry x="3701" y="-370" width="150" height="60" as="geometry" />
        </mxCell>
        <mxCell id="VTl_a38fpqqt_TvR1LLS-229" value="" style="endArrow=classic;html=1;rounded=0;exitX=0.5;exitY=1;exitDx=0;exitDy=0;" edge="1" source="VTl_a38fpqqt_TvR1LLS-228" target="VTl_a38fpqqt_TvR1LLS-201" parent="1">
          <mxGeometry width="50" height="50" relative="1" as="geometry">
            <mxPoint x="3711" y="-210" as="sourcePoint" />
            <mxPoint x="3761" y="-260" as="targetPoint" />
          </mxGeometry>
        </mxCell>
        <mxCell id="VTl_a38fpqqt_TvR1LLS-263" value="H_JCVB_game_object.hpp" style="rounded=1;whiteSpace=wrap;html=1;" vertex="1" parent="1">
          <mxGeometry x="1999" y="200" width="150" height="60" as="geometry" />
        </mxCell>
        <mxCell id="VTl_a38fpqqt_TvR1LLS-264" value="H_JCVB_texture.hpp" style="rounded=1;whiteSpace=wrap;html=1;" vertex="1" parent="1">
          <mxGeometry x="1915" y="30" width="150" height="60" as="geometry" />
        </mxCell>
        <mxCell id="VTl_a38fpqqt_TvR1LLS-265" value="H_JCVB_component.hpp" style="rounded=1;whiteSpace=wrap;html=1;" vertex="1" parent="1">
          <mxGeometry x="2084" y="30" width="150" height="60" as="geometry" />
        </mxCell>
        <mxCell id="VTl_a38fpqqt_TvR1LLS-266" value="H_JCVB_game_object.hpp" style="rounded=1;whiteSpace=wrap;html=1;" vertex="1" parent="1">
          <mxGeometry x="2084" y="-200" width="150" height="60" as="geometry" />
        </mxCell>
        <mxCell id="VTl_a38fpqqt_TvR1LLS-267" value="H_JCVB_device.hpp" style="rounded=1;whiteSpace=wrap;html=1;" vertex="1" parent="1">
          <mxGeometry x="1915" y="-200" width="150" height="60" as="geometry" />
        </mxCell>
        <mxCell id="VTl_a38fpqqt_TvR1LLS-268" value="" style="endArrow=classic;html=1;rounded=0;exitX=0.5;exitY=1;exitDx=0;exitDy=0;" edge="1" parent="1">
          <mxGeometry width="50" height="50" relative="1" as="geometry">
            <mxPoint x="1989" y="-120" as="sourcePoint" />
            <mxPoint x="1989" y="30" as="targetPoint" />
          </mxGeometry>
        </mxCell>
        <mxCell id="VTl_a38fpqqt_TvR1LLS-269" value="" style="endArrow=classic;html=1;rounded=0;exitX=0.5;exitY=1;exitDx=0;exitDy=0;" edge="1" source="VTl_a38fpqqt_TvR1LLS-266" target="VTl_a38fpqqt_TvR1LLS-265" parent="1">
          <mxGeometry width="50" height="50" relative="1" as="geometry">
            <mxPoint x="2164" y="-40" as="sourcePoint" />
            <mxPoint x="2214" y="-90" as="targetPoint" />
          </mxGeometry>
        </mxCell>
        <mxCell id="VTl_a38fpqqt_TvR1LLS-270" value="" style="endArrow=classic;html=1;rounded=0;exitX=0.5;exitY=1;exitDx=0;exitDy=0;" edge="1" parent="1">
          <mxGeometry width="50" height="50" relative="1" as="geometry">
            <mxPoint x="1989" y="90" as="sourcePoint" />
            <mxPoint x="2054" y="200" as="targetPoint" />
            <Array as="points">
              <mxPoint x="1989" y="120" />
              <mxPoint x="2054" y="120" />
            </Array>
          </mxGeometry>
        </mxCell>
        <mxCell id="VTl_a38fpqqt_TvR1LLS-271" value="" style="endArrow=classic;html=1;rounded=0;exitX=0.5;exitY=1;exitDx=0;exitDy=0;" edge="1" source="VTl_a38fpqqt_TvR1LLS-265" parent="1">
          <mxGeometry width="50" height="50" relative="1" as="geometry">
            <mxPoint x="2164" y="150" as="sourcePoint" />
            <mxPoint x="2084" y="200" as="targetPoint" />
            <Array as="points">
              <mxPoint x="2159" y="120" />
              <mxPoint x="2085" y="120" />
            </Array>
          </mxGeometry>
        </mxCell>
        <mxCell id="VTl_a38fpqqt_TvR1LLS-272" value="" style="endArrow=classic;html=1;rounded=0;exitX=0.5;exitY=1;exitDx=0;exitDy=0;entryX=0.25;entryY=0;entryDx=0;entryDy=0;" edge="1" source="VTl_a38fpqqt_TvR1LLS-287" target="VTl_a38fpqqt_TvR1LLS-263" parent="1">
          <mxGeometry width="50" height="50" relative="1" as="geometry">
            <mxPoint x="1829" y="90" as="sourcePoint" />
            <mxPoint x="1844" y="100" as="targetPoint" />
            <Array as="points">
              <mxPoint x="1759" y="140" />
              <mxPoint x="2037" y="140" />
            </Array>
          </mxGeometry>
        </mxCell>
        <mxCell id="VTl_a38fpqqt_TvR1LLS-273" value="" style="endArrow=classic;html=1;rounded=0;exitX=0.5;exitY=1;exitDx=0;exitDy=0;entryX=0.75;entryY=0;entryDx=0;entryDy=0;" edge="1" source="VTl_a38fpqqt_TvR1LLS-274" target="VTl_a38fpqqt_TvR1LLS-263" parent="1">
          <mxGeometry width="50" height="50" relative="1" as="geometry">
            <mxPoint x="2329" y="90" as="sourcePoint" />
            <mxPoint x="2274" y="140" as="targetPoint" />
            <Array as="points">
              <mxPoint x="2409" y="140" />
              <mxPoint x="2112" y="140" />
            </Array>
          </mxGeometry>
        </mxCell>
        <mxCell id="VTl_a38fpqqt_TvR1LLS-274" value="H_JCVB_mesh_renderer.hpp" style="rounded=1;whiteSpace=wrap;html=1;" vertex="1" parent="1">
          <mxGeometry x="2324" y="30" width="170" height="60" as="geometry" />
        </mxCell>
        <mxCell id="VTl_a38fpqqt_TvR1LLS-275" value="" style="endArrow=classic;html=1;rounded=0;entryX=0.293;entryY=0.045;entryDx=0;entryDy=0;exitX=0.5;exitY=1;exitDx=0;exitDy=0;entryPerimeter=0;" edge="1" source="VTl_a38fpqqt_TvR1LLS-276" target="VTl_a38fpqqt_TvR1LLS-274" parent="1">
          <mxGeometry width="50" height="50" relative="1" as="geometry">
            <mxPoint x="2249" y="-140" as="sourcePoint" />
            <mxPoint x="2364" y="-110" as="targetPoint" />
            <Array as="points">
              <mxPoint x="2329" y="-20" />
              <mxPoint x="2374" y="-20" />
            </Array>
          </mxGeometry>
        </mxCell>
        <mxCell id="VTl_a38fpqqt_TvR1LLS-276" value="H_JCVB_component.hpp" style="rounded=1;whiteSpace=wrap;html=1;" vertex="1" parent="1">
          <mxGeometry x="2254" y="-200" width="150" height="60" as="geometry" />
        </mxCell>
        <mxCell id="VTl_a38fpqqt_TvR1LLS-277" value="H_JCVB_game_object.hpp" style="rounded=1;whiteSpace=wrap;html=1;" vertex="1" parent="1">
          <mxGeometry x="2174" y="-370" width="150" height="60" as="geometry" />
        </mxCell>
        <mxCell id="VTl_a38fpqqt_TvR1LLS-278" value="" style="endArrow=classic;html=1;rounded=0;exitX=0.5;exitY=1;exitDx=0;exitDy=0;entryX=0.5;entryY=0;entryDx=0;entryDy=0;" edge="1" source="VTl_a38fpqqt_TvR1LLS-277" target="VTl_a38fpqqt_TvR1LLS-276" parent="1">
          <mxGeometry width="50" height="50" relative="1" as="geometry">
            <mxPoint x="2334" y="-170" as="sourcePoint" />
            <mxPoint x="2384" y="-220" as="targetPoint" />
            <Array as="points">
              <mxPoint x="2249" y="-250" />
              <mxPoint x="2329" y="-250" />
            </Array>
          </mxGeometry>
        </mxCell>
        <mxCell id="VTl_a38fpqqt_TvR1LLS-279" value="H_JCVB_model.hpp" style="rounded=1;whiteSpace=wrap;html=1;" vertex="1" parent="1">
          <mxGeometry x="2414" y="-200" width="170" height="60" as="geometry" />
        </mxCell>
        <mxCell id="VTl_a38fpqqt_TvR1LLS-280" value="H_JCVB_buffer.hpp" style="rounded=1;whiteSpace=wrap;html=1;" vertex="1" parent="1">
          <mxGeometry x="2344" y="-370" width="150" height="60" as="geometry" />
        </mxCell>
        <mxCell id="VTl_a38fpqqt_TvR1LLS-281" value="H_JCVB_device.hpp" style="rounded=1;whiteSpace=wrap;html=1;" vertex="1" parent="1">
          <mxGeometry x="2509" y="-370" width="120" height="60" as="geometry" />
        </mxCell>
        <mxCell id="VTl_a38fpqqt_TvR1LLS-282" value="H_JCVB_window.hpp" style="rounded=1;whiteSpace=wrap;html=1;" vertex="1" parent="1">
          <mxGeometry x="2494" y="-520" width="150" height="60" as="geometry" />
        </mxCell>
        <mxCell id="VTl_a38fpqqt_TvR1LLS-283" value="" style="endArrow=classic;html=1;rounded=0;exitX=0.5;exitY=1;exitDx=0;exitDy=0;entryX=0.5;entryY=0;entryDx=0;entryDy=0;" edge="1" source="VTl_a38fpqqt_TvR1LLS-282" parent="1">
          <mxGeometry width="50" height="50" relative="1" as="geometry">
            <mxPoint x="2309" y="-290" as="sourcePoint" />
            <mxPoint x="2569.000000000001" y="-370" as="targetPoint" />
          </mxGeometry>
        </mxCell>
        <mxCell id="VTl_a38fpqqt_TvR1LLS-284" value="" style="endArrow=classic;html=1;rounded=0;exitX=0.5;exitY=1;exitDx=0;exitDy=0;entryX=0.25;entryY=0;entryDx=0;entryDy=0;" edge="1" source="VTl_a38fpqqt_TvR1LLS-280" target="VTl_a38fpqqt_TvR1LLS-279" parent="1">
          <mxGeometry width="50" height="50" relative="1" as="geometry">
            <mxPoint x="2454" y="-150" as="sourcePoint" />
            <mxPoint x="2504" y="-200" as="targetPoint" />
            <Array as="points">
              <mxPoint x="2419" y="-230" />
              <mxPoint x="2457" y="-230" />
            </Array>
          </mxGeometry>
        </mxCell>
        <mxCell id="VTl_a38fpqqt_TvR1LLS-285" value="" style="endArrow=classic;html=1;rounded=0;exitX=0.5;exitY=1;exitDx=0;exitDy=0;entryX=0.75;entryY=0;entryDx=0;entryDy=0;" edge="1" target="VTl_a38fpqqt_TvR1LLS-279" parent="1">
          <mxGeometry width="50" height="50" relative="1" as="geometry">
            <mxPoint x="2569.000000000001" y="-310" as="sourcePoint" />
            <mxPoint x="2594" y="-200" as="targetPoint" />
            <Array as="points">
              <mxPoint x="2569" y="-230" />
              <mxPoint x="2542" y="-230" />
            </Array>
          </mxGeometry>
        </mxCell>
        <mxCell id="VTl_a38fpqqt_TvR1LLS-286" value="" style="endArrow=classic;html=1;rounded=0;entryX=0.75;entryY=0;entryDx=0;entryDy=0;" edge="1" source="VTl_a38fpqqt_TvR1LLS-279" target="VTl_a38fpqqt_TvR1LLS-274" parent="1">
          <mxGeometry width="50" height="50" relative="1" as="geometry">
            <mxPoint x="2364" y="10" as="sourcePoint" />
            <mxPoint x="2414" y="-40" as="targetPoint" />
            <Array as="points">
              <mxPoint x="2499" y="-20" />
              <mxPoint x="2452" y="-20" />
            </Array>
          </mxGeometry>
        </mxCell>
        <mxCell id="VTl_a38fpqqt_TvR1LLS-287" value="H_JCVB_model.hpp" style="rounded=1;whiteSpace=wrap;html=1;" vertex="1" parent="1">
          <mxGeometry x="1674" y="30" width="170" height="60" as="geometry" />
        </mxCell>
        <mxCell id="VTl_a38fpqqt_TvR1LLS-288" value="H_JCVB_buffer.hpp" style="rounded=1;whiteSpace=wrap;html=1;" vertex="1" parent="1">
          <mxGeometry x="1604" y="-200" width="150" height="60" as="geometry" />
        </mxCell>
        <mxCell id="VTl_a38fpqqt_TvR1LLS-289" value="H_JCVB_device.hpp" style="rounded=1;whiteSpace=wrap;html=1;" vertex="1" parent="1">
          <mxGeometry x="1769" y="-200" width="120" height="60" as="geometry" />
        </mxCell>
        <mxCell id="VTl_a38fpqqt_TvR1LLS-290" value="H_JCVB_window.hpp" style="rounded=1;whiteSpace=wrap;html=1;" vertex="1" parent="1">
          <mxGeometry x="1745" y="-370" width="150" height="60" as="geometry" />
        </mxCell>
        <mxCell id="VTl_a38fpqqt_TvR1LLS-291" value="" style="endArrow=classic;html=1;rounded=0;exitX=0.5;exitY=1;exitDx=0;exitDy=0;entryX=0.5;entryY=0;entryDx=0;entryDy=0;" edge="1" source="VTl_a38fpqqt_TvR1LLS-290" target="VTl_a38fpqqt_TvR1LLS-289" parent="1">
          <mxGeometry width="50" height="50" relative="1" as="geometry">
            <mxPoint x="1680" y="-160" as="sourcePoint" />
            <mxPoint x="1730" y="-210" as="targetPoint" />
          </mxGeometry>
        </mxCell>
        <mxCell id="VTl_a38fpqqt_TvR1LLS-292" value="" style="endArrow=classic;html=1;rounded=0;exitX=0.5;exitY=1;exitDx=0;exitDy=0;entryX=0.25;entryY=0;entryDx=0;entryDy=0;" edge="1" source="VTl_a38fpqqt_TvR1LLS-288" target="VTl_a38fpqqt_TvR1LLS-287" parent="1">
          <mxGeometry width="50" height="50" relative="1" as="geometry">
            <mxPoint x="1714" y="-20" as="sourcePoint" />
            <mxPoint x="1764" y="-70" as="targetPoint" />
            <Array as="points">
              <mxPoint x="1679" y="-100" />
              <mxPoint x="1717" y="-100" />
            </Array>
          </mxGeometry>
        </mxCell>
        <mxCell id="VTl_a38fpqqt_TvR1LLS-293" value="" style="endArrow=classic;html=1;rounded=0;exitX=0.5;exitY=1;exitDx=0;exitDy=0;entryX=0.75;entryY=0;entryDx=0;entryDy=0;" edge="1" source="VTl_a38fpqqt_TvR1LLS-289" target="VTl_a38fpqqt_TvR1LLS-287" parent="1">
          <mxGeometry width="50" height="50" relative="1" as="geometry">
            <mxPoint x="1804" y="-20" as="sourcePoint" />
            <mxPoint x="1854" y="-70" as="targetPoint" />
            <Array as="points">
              <mxPoint x="1829" y="-100" />
              <mxPoint x="1802" y="-100" />
            </Array>
          </mxGeometry>
        </mxCell>
        <mxCell id="VTl_a38fpqqt_TvR1LLS-294" value="H_JCVB_window.hpp" style="rounded=1;whiteSpace=wrap;html=1;" vertex="1" parent="1">
          <mxGeometry x="1915" y="-370" width="150" height="60" as="geometry" />
        </mxCell>
        <mxCell id="VTl_a38fpqqt_TvR1LLS-295" value="" style="endArrow=classic;html=1;rounded=0;exitX=0.5;exitY=1;exitDx=0;exitDy=0;" edge="1" source="VTl_a38fpqqt_TvR1LLS-294" target="VTl_a38fpqqt_TvR1LLS-267" parent="1">
          <mxGeometry width="50" height="50" relative="1" as="geometry">
            <mxPoint x="1925" y="-210" as="sourcePoint" />
            <mxPoint x="1975" y="-260" as="targetPoint" />
          </mxGeometry>
        </mxCell>
        <mxCell id="VTl_a38fpqqt_TvR1LLS-296" value="H_JCVB_game_object.hpp" style="rounded=1;whiteSpace=wrap;html=1;" vertex="1" parent="1">
          <mxGeometry x="25" y="200" width="150" height="60" as="geometry" />
        </mxCell>
        <mxCell id="VTl_a38fpqqt_TvR1LLS-297" value="H_JCVB_texture.hpp" style="rounded=1;whiteSpace=wrap;html=1;" vertex="1" parent="1">
          <mxGeometry x="-59" y="30" width="150" height="60" as="geometry" />
        </mxCell>
        <mxCell id="VTl_a38fpqqt_TvR1LLS-298" value="H_JCVB_component.hpp" style="rounded=1;whiteSpace=wrap;html=1;" vertex="1" parent="1">
          <mxGeometry x="110" y="30" width="150" height="60" as="geometry" />
        </mxCell>
        <mxCell id="VTl_a38fpqqt_TvR1LLS-299" value="H_JCVB_game_object.hpp" style="rounded=1;whiteSpace=wrap;html=1;" vertex="1" parent="1">
          <mxGeometry x="110" y="-200" width="150" height="60" as="geometry" />
        </mxCell>
        <mxCell id="VTl_a38fpqqt_TvR1LLS-300" value="H_JCVB_device.hpp" style="rounded=1;whiteSpace=wrap;html=1;" vertex="1" parent="1">
          <mxGeometry x="-59" y="-200" width="150" height="60" as="geometry" />
        </mxCell>
        <mxCell id="VTl_a38fpqqt_TvR1LLS-301" value="" style="endArrow=classic;html=1;rounded=0;exitX=0.5;exitY=1;exitDx=0;exitDy=0;" edge="1" parent="1">
          <mxGeometry width="50" height="50" relative="1" as="geometry">
            <mxPoint x="15" y="-120" as="sourcePoint" />
            <mxPoint x="15" y="30" as="targetPoint" />
          </mxGeometry>
        </mxCell>
        <mxCell id="VTl_a38fpqqt_TvR1LLS-302" value="" style="endArrow=classic;html=1;rounded=0;" edge="1" source="VTl_a38fpqqt_TvR1LLS-299" target="VTl_a38fpqqt_TvR1LLS-298" parent="1">
          <mxGeometry width="50" height="50" relative="1" as="geometry">
            <mxPoint x="190" y="-40" as="sourcePoint" />
            <mxPoint x="240" y="-90" as="targetPoint" />
          </mxGeometry>
        </mxCell>
        <mxCell id="VTl_a38fpqqt_TvR1LLS-303" value="" style="endArrow=classic;html=1;rounded=0;exitX=0.5;exitY=1;exitDx=0;exitDy=0;" edge="1" parent="1">
          <mxGeometry width="50" height="50" relative="1" as="geometry">
            <mxPoint x="15" y="90" as="sourcePoint" />
            <mxPoint x="80" y="200" as="targetPoint" />
            <Array as="points">
              <mxPoint x="15" y="120" />
              <mxPoint x="80" y="120" />
            </Array>
          </mxGeometry>
        </mxCell>
        <mxCell id="VTl_a38fpqqt_TvR1LLS-304" value="" style="endArrow=classic;html=1;rounded=0;exitX=0.5;exitY=1;exitDx=0;exitDy=0;" edge="1" source="VTl_a38fpqqt_TvR1LLS-298" parent="1">
          <mxGeometry width="50" height="50" relative="1" as="geometry">
            <mxPoint x="190" y="150" as="sourcePoint" />
            <mxPoint x="110" y="200" as="targetPoint" />
            <Array as="points">
              <mxPoint x="185" y="120" />
              <mxPoint x="111" y="120" />
            </Array>
          </mxGeometry>
        </mxCell>
        <mxCell id="VTl_a38fpqqt_TvR1LLS-305" value="" style="endArrow=classic;html=1;rounded=0;exitX=0.5;exitY=1;exitDx=0;exitDy=0;entryX=0.25;entryY=0;entryDx=0;entryDy=0;" edge="1" source="VTl_a38fpqqt_TvR1LLS-320" target="VTl_a38fpqqt_TvR1LLS-296" parent="1">
          <mxGeometry width="50" height="50" relative="1" as="geometry">
            <mxPoint x="-145" y="90" as="sourcePoint" />
            <mxPoint x="-130" y="100" as="targetPoint" />
            <Array as="points">
              <mxPoint x="-215" y="140" />
              <mxPoint x="63" y="140" />
            </Array>
          </mxGeometry>
        </mxCell>
        <mxCell id="VTl_a38fpqqt_TvR1LLS-306" value="" style="endArrow=classic;html=1;rounded=0;exitX=0.5;exitY=1;exitDx=0;exitDy=0;entryX=0.75;entryY=0;entryDx=0;entryDy=0;" edge="1" source="VTl_a38fpqqt_TvR1LLS-307" target="VTl_a38fpqqt_TvR1LLS-296" parent="1">
          <mxGeometry width="50" height="50" relative="1" as="geometry">
            <mxPoint x="355" y="90" as="sourcePoint" />
            <mxPoint x="300" y="140" as="targetPoint" />
            <Array as="points">
              <mxPoint x="435" y="140" />
              <mxPoint x="138" y="140" />
            </Array>
          </mxGeometry>
        </mxCell>
        <mxCell id="VTl_a38fpqqt_TvR1LLS-307" value="H_JCVB_mesh_renderer.hpp" style="rounded=1;whiteSpace=wrap;html=1;" vertex="1" parent="1">
          <mxGeometry x="350" y="30" width="170" height="60" as="geometry" />
        </mxCell>
        <mxCell id="VTl_a38fpqqt_TvR1LLS-308" value="" style="endArrow=classic;html=1;rounded=0;entryX=0.293;entryY=0.045;entryDx=0;entryDy=0;exitX=0.5;exitY=1;exitDx=0;exitDy=0;entryPerimeter=0;" edge="1" source="VTl_a38fpqqt_TvR1LLS-309" target="VTl_a38fpqqt_TvR1LLS-307" parent="1">
          <mxGeometry width="50" height="50" relative="1" as="geometry">
            <mxPoint x="275" y="-140" as="sourcePoint" />
            <mxPoint x="390" y="-110" as="targetPoint" />
            <Array as="points">
              <mxPoint x="355" y="-20" />
              <mxPoint x="400" y="-20" />
            </Array>
          </mxGeometry>
        </mxCell>
        <mxCell id="VTl_a38fpqqt_TvR1LLS-309" value="H_JCVB_component.hpp" style="rounded=1;whiteSpace=wrap;html=1;" vertex="1" parent="1">
          <mxGeometry x="280" y="-200" width="150" height="60" as="geometry" />
        </mxCell>
        <mxCell id="VTl_a38fpqqt_TvR1LLS-310" value="H_JCVB_game_object.hpp" style="rounded=1;whiteSpace=wrap;html=1;" vertex="1" parent="1">
          <mxGeometry x="200" y="-370" width="150" height="60" as="geometry" />
        </mxCell>
        <mxCell id="VTl_a38fpqqt_TvR1LLS-311" value="" style="endArrow=classic;html=1;rounded=0;exitX=0.5;exitY=1;exitDx=0;exitDy=0;entryX=0.5;entryY=0;entryDx=0;entryDy=0;" edge="1" source="VTl_a38fpqqt_TvR1LLS-310" target="VTl_a38fpqqt_TvR1LLS-309" parent="1">
          <mxGeometry width="50" height="50" relative="1" as="geometry">
            <mxPoint x="360" y="-170" as="sourcePoint" />
            <mxPoint x="410" y="-220" as="targetPoint" />
            <Array as="points">
              <mxPoint x="275" y="-250" />
              <mxPoint x="355" y="-250" />
            </Array>
          </mxGeometry>
        </mxCell>
        <mxCell id="VTl_a38fpqqt_TvR1LLS-312" value="H_JCVB_model.hpp" style="rounded=1;whiteSpace=wrap;html=1;" vertex="1" parent="1">
          <mxGeometry x="440" y="-200" width="170" height="60" as="geometry" />
        </mxCell>
        <mxCell id="VTl_a38fpqqt_TvR1LLS-313" value="H_JCVB_buffer.hpp" style="rounded=1;whiteSpace=wrap;html=1;" vertex="1" parent="1">
          <mxGeometry x="370" y="-370" width="150" height="60" as="geometry" />
        </mxCell>
        <mxCell id="VTl_a38fpqqt_TvR1LLS-314" value="H_JCVB_device.hpp" style="rounded=1;whiteSpace=wrap;html=1;" vertex="1" parent="1">
          <mxGeometry x="535" y="-370" width="120" height="60" as="geometry" />
        </mxCell>
        <mxCell id="VTl_a38fpqqt_TvR1LLS-315" value="H_JCVB_window.hpp" style="rounded=1;whiteSpace=wrap;html=1;" vertex="1" parent="1">
          <mxGeometry x="520" y="-520" width="150" height="60" as="geometry" />
        </mxCell>
        <mxCell id="VTl_a38fpqqt_TvR1LLS-316" value="" style="endArrow=classic;html=1;rounded=0;exitX=0.5;exitY=1;exitDx=0;exitDy=0;entryX=0.5;entryY=0;entryDx=0;entryDy=0;" edge="1" source="VTl_a38fpqqt_TvR1LLS-315" parent="1">
          <mxGeometry width="50" height="50" relative="1" as="geometry">
            <mxPoint x="335" y="-290" as="sourcePoint" />
            <mxPoint x="595.0000000000009" y="-370" as="targetPoint" />
          </mxGeometry>
        </mxCell>
        <mxCell id="VTl_a38fpqqt_TvR1LLS-317" value="" style="endArrow=classic;html=1;rounded=0;exitX=0.5;exitY=1;exitDx=0;exitDy=0;entryX=0.25;entryY=0;entryDx=0;entryDy=0;" edge="1" source="VTl_a38fpqqt_TvR1LLS-313" target="VTl_a38fpqqt_TvR1LLS-312" parent="1">
          <mxGeometry width="50" height="50" relative="1" as="geometry">
            <mxPoint x="480" y="-150" as="sourcePoint" />
            <mxPoint x="530" y="-200" as="targetPoint" />
            <Array as="points">
              <mxPoint x="445" y="-230" />
              <mxPoint x="483" y="-230" />
            </Array>
          </mxGeometry>
        </mxCell>
        <mxCell id="VTl_a38fpqqt_TvR1LLS-318" value="" style="endArrow=classic;html=1;rounded=0;exitX=0.5;exitY=1;exitDx=0;exitDy=0;entryX=0.75;entryY=0;entryDx=0;entryDy=0;" edge="1" target="VTl_a38fpqqt_TvR1LLS-312" parent="1">
          <mxGeometry width="50" height="50" relative="1" as="geometry">
            <mxPoint x="595.0000000000009" y="-310" as="sourcePoint" />
            <mxPoint x="620" y="-200" as="targetPoint" />
            <Array as="points">
              <mxPoint x="595" y="-230" />
              <mxPoint x="568" y="-230" />
            </Array>
          </mxGeometry>
        </mxCell>
        <mxCell id="VTl_a38fpqqt_TvR1LLS-319" value="" style="endArrow=classic;html=1;rounded=0;entryX=0.75;entryY=0;entryDx=0;entryDy=0;" edge="1" source="VTl_a38fpqqt_TvR1LLS-312" target="VTl_a38fpqqt_TvR1LLS-307" parent="1">
          <mxGeometry width="50" height="50" relative="1" as="geometry">
            <mxPoint x="390" y="10" as="sourcePoint" />
            <mxPoint x="440" y="-40" as="targetPoint" />
            <Array as="points">
              <mxPoint x="525" y="-20" />
              <mxPoint x="478" y="-20" />
            </Array>
          </mxGeometry>
        </mxCell>
        <mxCell id="VTl_a38fpqqt_TvR1LLS-320" value="H_JCVB_model.hpp" style="rounded=1;whiteSpace=wrap;html=1;" vertex="1" parent="1">
          <mxGeometry x="-300" y="30" width="170" height="60" as="geometry" />
        </mxCell>
        <mxCell id="VTl_a38fpqqt_TvR1LLS-321" value="H_JCVB_buffer.hpp" style="rounded=1;whiteSpace=wrap;html=1;" vertex="1" parent="1">
          <mxGeometry x="-370" y="-200" width="150" height="60" as="geometry" />
        </mxCell>
        <mxCell id="VTl_a38fpqqt_TvR1LLS-322" value="H_JCVB_device.hpp" style="rounded=1;whiteSpace=wrap;html=1;" vertex="1" parent="1">
          <mxGeometry x="-205" y="-200" width="120" height="60" as="geometry" />
        </mxCell>
        <mxCell id="VTl_a38fpqqt_TvR1LLS-323" value="H_JCVB_window.hpp" style="rounded=1;whiteSpace=wrap;html=1;" vertex="1" parent="1">
          <mxGeometry x="-229" y="-370" width="150" height="60" as="geometry" />
        </mxCell>
        <mxCell id="VTl_a38fpqqt_TvR1LLS-324" value="" style="endArrow=classic;html=1;rounded=0;exitX=0.5;exitY=1;exitDx=0;exitDy=0;entryX=0.5;entryY=0;entryDx=0;entryDy=0;" edge="1" source="VTl_a38fpqqt_TvR1LLS-323" target="VTl_a38fpqqt_TvR1LLS-322" parent="1">
          <mxGeometry width="50" height="50" relative="1" as="geometry">
            <mxPoint x="-294" y="-160" as="sourcePoint" />
            <mxPoint x="-244" y="-210" as="targetPoint" />
          </mxGeometry>
        </mxCell>
        <mxCell id="VTl_a38fpqqt_TvR1LLS-325" value="" style="endArrow=classic;html=1;rounded=0;exitX=0.5;exitY=1;exitDx=0;exitDy=0;entryX=0.25;entryY=0;entryDx=0;entryDy=0;" edge="1" source="VTl_a38fpqqt_TvR1LLS-321" target="VTl_a38fpqqt_TvR1LLS-320" parent="1">
          <mxGeometry width="50" height="50" relative="1" as="geometry">
            <mxPoint x="-260" y="-20" as="sourcePoint" />
            <mxPoint x="-210" y="-70" as="targetPoint" />
            <Array as="points">
              <mxPoint x="-295" y="-100" />
              <mxPoint x="-257" y="-100" />
            </Array>
          </mxGeometry>
        </mxCell>
        <mxCell id="VTl_a38fpqqt_TvR1LLS-326" value="" style="endArrow=classic;html=1;rounded=0;exitX=0.5;exitY=1;exitDx=0;exitDy=0;entryX=0.75;entryY=0;entryDx=0;entryDy=0;" edge="1" source="VTl_a38fpqqt_TvR1LLS-322" target="VTl_a38fpqqt_TvR1LLS-320" parent="1">
          <mxGeometry width="50" height="50" relative="1" as="geometry">
            <mxPoint x="-170" y="-20" as="sourcePoint" />
            <mxPoint x="-120" y="-70" as="targetPoint" />
            <Array as="points">
              <mxPoint x="-145" y="-100" />
              <mxPoint x="-172" y="-100" />
            </Array>
          </mxGeometry>
        </mxCell>
        <mxCell id="VTl_a38fpqqt_TvR1LLS-327" value="H_JCVB_window.hpp" style="rounded=1;whiteSpace=wrap;html=1;" vertex="1" parent="1">
          <mxGeometry x="-59" y="-370" width="150" height="60" as="geometry" />
        </mxCell>
        <mxCell id="VTl_a38fpqqt_TvR1LLS-328" value="" style="endArrow=classic;html=1;rounded=0;exitX=0.5;exitY=1;exitDx=0;exitDy=0;" edge="1" source="VTl_a38fpqqt_TvR1LLS-327" target="VTl_a38fpqqt_TvR1LLS-300" parent="1">
          <mxGeometry width="50" height="50" relative="1" as="geometry">
            <mxPoint x="-49" y="-210" as="sourcePoint" />
            <mxPoint x="1" y="-260" as="targetPoint" />
          </mxGeometry>
        </mxCell>
        <mxCell id="VTl_a38fpqqt_TvR1LLS-329" value="H_JCVB_window.hpp" style="rounded=1;whiteSpace=wrap;html=1;" vertex="1" parent="1">
          <mxGeometry x="6360" y="-10" width="150" height="60" as="geometry" />
        </mxCell>
        <mxCell id="VTl_a38fpqqt_TvR1LLS-330" value="H_JCVB_device.hpp" style="rounded=1;whiteSpace=wrap;html=1;" vertex="1" parent="1">
          <mxGeometry x="6375" y="200" width="120" height="60" as="geometry" />
        </mxCell>
        <mxCell id="VTl_a38fpqqt_TvR1LLS-331" value="H_JCVB_pipeline.hpp" style="rounded=1;whiteSpace=wrap;html=1;" vertex="1" parent="1">
          <mxGeometry x="6350" y="370" width="170" height="60" as="geometry" />
        </mxCell>
        <mxCell id="VTl_a38fpqqt_TvR1LLS-332" value="" style="endArrow=classic;html=1;rounded=0;exitX=0.5;exitY=1;exitDx=0;exitDy=0;entryX=0.5;entryY=0;entryDx=0;entryDy=0;" edge="1" parent="1" source="VTl_a38fpqqt_TvR1LLS-329" target="VTl_a38fpqqt_TvR1LLS-330">
          <mxGeometry width="50" height="50" relative="1" as="geometry">
            <mxPoint x="6440" y="140" as="sourcePoint" />
            <mxPoint x="6490" y="90" as="targetPoint" />
          </mxGeometry>
        </mxCell>
        <mxCell id="VTl_a38fpqqt_TvR1LLS-333" value="" style="endArrow=classic;html=1;rounded=0;exitX=0.5;exitY=1;exitDx=0;exitDy=0;entryX=0.5;entryY=0;entryDx=0;entryDy=0;" edge="1" parent="1" source="VTl_a38fpqqt_TvR1LLS-330" target="VTl_a38fpqqt_TvR1LLS-331">
          <mxGeometry width="50" height="50" relative="1" as="geometry">
            <mxPoint x="6430" y="370" as="sourcePoint" />
            <mxPoint x="6480" y="320" as="targetPoint" />
          </mxGeometry>
        </mxCell>
        <mxCell id="VTl_a38fpqqt_TvR1LLS-334" value="H_JCVB_renderer.hpp" style="rounded=1;whiteSpace=wrap;html=1;" vertex="1" parent="1">
          <mxGeometry x="6710" y="370" width="150" height="60" as="geometry" />
        </mxCell>
        <mxCell id="VTl_a38fpqqt_TvR1LLS-335" value="H_JCVB_device.hpp" style="rounded=1;whiteSpace=wrap;html=1;" vertex="1" parent="1">
          <mxGeometry x="6550" y="200" width="150" height="60" as="geometry" />
        </mxCell>
        <mxCell id="VTl_a38fpqqt_TvR1LLS-336" value="H_JCVB_swap_chain.hpp" style="rounded=1;whiteSpace=wrap;html=1;" vertex="1" parent="1">
          <mxGeometry x="6710" y="200" width="150" height="60" as="geometry" />
        </mxCell>
        <mxCell id="VTl_a38fpqqt_TvR1LLS-337" value="H_JCVB_window.hpp" style="rounded=1;whiteSpace=wrap;html=1;" vertex="1" parent="1">
          <mxGeometry x="6870" y="200" width="150" height="60" as="geometry" />
        </mxCell>
        <mxCell id="VTl_a38fpqqt_TvR1LLS-338" value="H_JCVB_window.hpp" style="rounded=1;whiteSpace=wrap;html=1;" vertex="1" parent="1">
          <mxGeometry x="6550" y="-10" width="150" height="60" as="geometry" />
        </mxCell>
        <mxCell id="VTl_a38fpqqt_TvR1LLS-339" value="" style="endArrow=classic;html=1;rounded=0;exitX=0.5;exitY=1;exitDx=0;exitDy=0;entryX=0.5;entryY=0;entryDx=0;entryDy=0;" edge="1" source="VTl_a38fpqqt_TvR1LLS-338" target="VTl_a38fpqqt_TvR1LLS-335" parent="1">
          <mxGeometry width="50" height="50" relative="1" as="geometry">
            <mxPoint x="6660" y="200" as="sourcePoint" />
            <mxPoint x="6710" y="150" as="targetPoint" />
          </mxGeometry>
        </mxCell>
        <mxCell id="VTl_a38fpqqt_TvR1LLS-340" value="H_JCVB_device.hpp" style="rounded=1;whiteSpace=wrap;html=1;" vertex="1" parent="1">
          <mxGeometry x="6710" y="-10" width="150" height="60" as="geometry" />
        </mxCell>
        <mxCell id="VTl_a38fpqqt_TvR1LLS-341" value="" style="endArrow=classic;html=1;rounded=0;exitX=0.5;exitY=1;exitDx=0;exitDy=0;entryX=0.5;entryY=0;entryDx=0;entryDy=0;" edge="1" source="VTl_a38fpqqt_TvR1LLS-340" target="VTl_a38fpqqt_TvR1LLS-336" parent="1">
          <mxGeometry width="50" height="50" relative="1" as="geometry">
            <mxPoint x="6800" y="170" as="sourcePoint" />
            <mxPoint x="6850" y="120" as="targetPoint" />
          </mxGeometry>
        </mxCell>
        <mxCell id="VTl_a38fpqqt_TvR1LLS-342" value="" style="endArrow=classic;html=1;rounded=0;exitX=0.5;exitY=1;exitDx=0;exitDy=0;" edge="1" source="VTl_a38fpqqt_TvR1LLS-336" target="VTl_a38fpqqt_TvR1LLS-334" parent="1">
          <mxGeometry width="50" height="50" relative="1" as="geometry">
            <mxPoint x="6750" y="390" as="sourcePoint" />
            <mxPoint x="6800" y="340" as="targetPoint" />
          </mxGeometry>
        </mxCell>
        <mxCell id="VTl_a38fpqqt_TvR1LLS-343" value="" style="endArrow=classic;html=1;rounded=0;exitX=0.5;exitY=1;exitDx=0;exitDy=0;entryX=0.25;entryY=0;entryDx=0;entryDy=0;" edge="1" source="VTl_a38fpqqt_TvR1LLS-335" target="VTl_a38fpqqt_TvR1LLS-334" parent="1">
          <mxGeometry width="50" height="50" relative="1" as="geometry">
            <mxPoint x="6550" y="390" as="sourcePoint" />
            <mxPoint x="6600" y="340" as="targetPoint" />
            <Array as="points">
              <mxPoint x="6625" y="350" />
              <mxPoint x="6748" y="350" />
            </Array>
          </mxGeometry>
        </mxCell>
        <mxCell id="VTl_a38fpqqt_TvR1LLS-344" value="" style="endArrow=classic;html=1;rounded=0;entryX=0.75;entryY=0;entryDx=0;entryDy=0;" edge="1" source="VTl_a38fpqqt_TvR1LLS-337" target="VTl_a38fpqqt_TvR1LLS-334" parent="1">
          <mxGeometry width="50" height="50" relative="1" as="geometry">
            <mxPoint x="6890" y="390" as="sourcePoint" />
            <mxPoint x="6940" y="340" as="targetPoint" />
            <Array as="points">
              <mxPoint x="6945" y="350" />
              <mxPoint x="6823" y="350" />
            </Array>
          </mxGeometry>
        </mxCell>
        <mxCell id="VTl_a38fpqqt_TvR1LLS-345" value="H_JCVB_swap_chain.hpp" style="rounded=1;whiteSpace=wrap;html=1;" vertex="1" parent="1">
          <mxGeometry x="7060" y="370" width="150" height="60" as="geometry" />
        </mxCell>
        <mxCell id="VTl_a38fpqqt_TvR1LLS-346" value="H_JCVB_device.hpp" style="rounded=1;whiteSpace=wrap;html=1;" vertex="1" parent="1">
          <mxGeometry x="7060" y="200" width="150" height="60" as="geometry" />
        </mxCell>
        <mxCell id="VTl_a38fpqqt_TvR1LLS-347" value="" style="endArrow=classic;html=1;rounded=0;exitX=0.5;exitY=1;exitDx=0;exitDy=0;entryX=0.5;entryY=0;entryDx=0;entryDy=0;" edge="1" source="VTl_a38fpqqt_TvR1LLS-346" target="VTl_a38fpqqt_TvR1LLS-345" parent="1">
          <mxGeometry width="50" height="50" relative="1" as="geometry">
            <mxPoint x="7150" y="380" as="sourcePoint" />
            <mxPoint x="7200" y="330" as="targetPoint" />
          </mxGeometry>
        </mxCell>
        <mxCell id="VTl_a38fpqqt_TvR1LLS-348" value="H_JCVB_texture.hpp" style="rounded=1;whiteSpace=wrap;html=1;" vertex="1" parent="1">
          <mxGeometry x="7250" y="370" width="150" height="60" as="geometry" />
        </mxCell>
        <mxCell id="VTl_a38fpqqt_TvR1LLS-350" value="" style="endArrow=classic;html=1;rounded=0;exitX=0.5;exitY=1;exitDx=0;exitDy=0;" edge="1" parent="1" source="VTl_a38fpqqt_TvR1LLS-349">
          <mxGeometry width="50" height="50" relative="1" as="geometry">
            <mxPoint x="7324" y="220" as="sourcePoint" />
            <mxPoint x="7324" y="370" as="targetPoint" />
          </mxGeometry>
        </mxCell>
        <mxCell id="VTl_a38fpqqt_TvR1LLS-351" value="H_JCVB_window.hpp" style="rounded=1;whiteSpace=wrap;html=1;" vertex="1" parent="1">
          <mxGeometry x="7250" y="-10" width="150" height="60" as="geometry" />
        </mxCell>
        <mxCell id="VTl_a38fpqqt_TvR1LLS-352" value="" style="endArrow=classic;html=1;rounded=0;exitX=0.5;exitY=1;exitDx=0;exitDy=0;" edge="1" source="VTl_a38fpqqt_TvR1LLS-351" target="VTl_a38fpqqt_TvR1LLS-349" parent="1">
          <mxGeometry width="50" height="50" relative="1" as="geometry">
            <mxPoint x="7260" y="130" as="sourcePoint" />
            <mxPoint x="7310" y="80" as="targetPoint" />
          </mxGeometry>
        </mxCell>
        <mxCell id="VTl_a38fpqqt_TvR1LLS-353" value="" style="endArrow=classic;html=1;rounded=0;exitX=0.5;exitY=1;exitDx=0;exitDy=0;" edge="1" parent="1" target="VTl_a38fpqqt_TvR1LLS-349">
          <mxGeometry width="50" height="50" relative="1" as="geometry">
            <mxPoint x="7324" y="220" as="sourcePoint" />
            <mxPoint x="7324" y="370" as="targetPoint" />
          </mxGeometry>
        </mxCell>
        <mxCell id="VTl_a38fpqqt_TvR1LLS-349" value="H_JCVB_device.hpp" style="rounded=1;whiteSpace=wrap;html=1;" vertex="1" parent="1">
          <mxGeometry x="7250" y="200" width="150" height="60" as="geometry" />
        </mxCell>
        <mxCell id="VTl_a38fpqqt_TvR1LLS-354" value="H_JCVB_utils.hpp" style="rounded=1;whiteSpace=wrap;html=1;" vertex="1" parent="1">
          <mxGeometry x="7443" y="370" width="150" height="60" as="geometry" />
        </mxCell>
        <mxCell id="VTl_a38fpqqt_TvR1LLS-355" value="H_JCVB_window.hpp" style="rounded=1;whiteSpace=wrap;html=1;" vertex="1" parent="1">
          <mxGeometry x="7630" y="370" width="150" height="60" as="geometry" />
        </mxCell>
        <mxCell id="VTl_a38fpqqt_TvR1LLS-356" value="H_keyboard_movement_controller.hpp" style="rounded=1;whiteSpace=wrap;html=1;" vertex="1" parent="1">
          <mxGeometry x="8230" y="370" width="260" height="60" as="geometry" />
        </mxCell>
        <mxCell id="VTl_a38fpqqt_TvR1LLS-357" value="H_JCVB_game_object.hpp" style="rounded=1;whiteSpace=wrap;html=1;" vertex="1" parent="1">
          <mxGeometry x="8215" y="200" width="150" height="60" as="geometry" />
        </mxCell>
        <mxCell id="VTl_a38fpqqt_TvR1LLS-358" value="H_JCVB_texture.hpp" style="rounded=1;whiteSpace=wrap;html=1;" vertex="1" parent="1">
          <mxGeometry x="8131" y="30" width="150" height="60" as="geometry" />
        </mxCell>
        <mxCell id="VTl_a38fpqqt_TvR1LLS-359" value="H_JCVB_component.hpp" style="rounded=1;whiteSpace=wrap;html=1;" vertex="1" parent="1">
          <mxGeometry x="8300" y="30" width="150" height="60" as="geometry" />
        </mxCell>
        <mxCell id="VTl_a38fpqqt_TvR1LLS-360" value="H_JCVB_game_object.hpp" style="rounded=1;whiteSpace=wrap;html=1;" vertex="1" parent="1">
          <mxGeometry x="8300" y="-200" width="150" height="60" as="geometry" />
        </mxCell>
        <mxCell id="VTl_a38fpqqt_TvR1LLS-361" value="H_JCVB_device.hpp" style="rounded=1;whiteSpace=wrap;html=1;" vertex="1" parent="1">
          <mxGeometry x="8131" y="-200" width="150" height="60" as="geometry" />
        </mxCell>
        <mxCell id="VTl_a38fpqqt_TvR1LLS-362" value="" style="endArrow=classic;html=1;rounded=0;exitX=0.5;exitY=1;exitDx=0;exitDy=0;" edge="1" parent="1">
          <mxGeometry width="50" height="50" relative="1" as="geometry">
            <mxPoint x="8205" y="-120" as="sourcePoint" />
            <mxPoint x="8205" y="30" as="targetPoint" />
          </mxGeometry>
        </mxCell>
        <mxCell id="VTl_a38fpqqt_TvR1LLS-363" value="" style="endArrow=classic;html=1;rounded=0;exitX=0.5;exitY=1;exitDx=0;exitDy=0;" edge="1" source="VTl_a38fpqqt_TvR1LLS-360" target="VTl_a38fpqqt_TvR1LLS-359" parent="1">
          <mxGeometry width="50" height="50" relative="1" as="geometry">
            <mxPoint x="8380" y="-40" as="sourcePoint" />
            <mxPoint x="8430" y="-90" as="targetPoint" />
          </mxGeometry>
        </mxCell>
        <mxCell id="VTl_a38fpqqt_TvR1LLS-364" value="" style="endArrow=classic;html=1;rounded=0;exitX=0.5;exitY=1;exitDx=0;exitDy=0;" edge="1" parent="1">
          <mxGeometry width="50" height="50" relative="1" as="geometry">
            <mxPoint x="8205" y="90" as="sourcePoint" />
            <mxPoint x="8270" y="200" as="targetPoint" />
            <Array as="points">
              <mxPoint x="8205" y="120" />
              <mxPoint x="8270" y="120" />
            </Array>
          </mxGeometry>
        </mxCell>
        <mxCell id="VTl_a38fpqqt_TvR1LLS-365" value="" style="endArrow=classic;html=1;rounded=0;exitX=0.5;exitY=1;exitDx=0;exitDy=0;" edge="1" source="VTl_a38fpqqt_TvR1LLS-359" parent="1">
          <mxGeometry width="50" height="50" relative="1" as="geometry">
            <mxPoint x="8380" y="150" as="sourcePoint" />
            <mxPoint x="8300" y="200" as="targetPoint" />
            <Array as="points">
              <mxPoint x="8375" y="120" />
              <mxPoint x="8301" y="120" />
            </Array>
          </mxGeometry>
        </mxCell>
        <mxCell id="VTl_a38fpqqt_TvR1LLS-366" value="" style="endArrow=classic;html=1;rounded=0;exitX=0.5;exitY=1;exitDx=0;exitDy=0;entryX=0.25;entryY=0;entryDx=0;entryDy=0;" edge="1" source="VTl_a38fpqqt_TvR1LLS-381" target="VTl_a38fpqqt_TvR1LLS-357" parent="1">
          <mxGeometry width="50" height="50" relative="1" as="geometry">
            <mxPoint x="8045" y="90" as="sourcePoint" />
            <mxPoint x="8060" y="100" as="targetPoint" />
            <Array as="points">
              <mxPoint x="7975" y="140" />
              <mxPoint x="8253" y="140" />
            </Array>
          </mxGeometry>
        </mxCell>
        <mxCell id="VTl_a38fpqqt_TvR1LLS-367" value="" style="endArrow=classic;html=1;rounded=0;exitX=0.5;exitY=1;exitDx=0;exitDy=0;entryX=0.75;entryY=0;entryDx=0;entryDy=0;" edge="1" source="VTl_a38fpqqt_TvR1LLS-368" target="VTl_a38fpqqt_TvR1LLS-357" parent="1">
          <mxGeometry width="50" height="50" relative="1" as="geometry">
            <mxPoint x="8545" y="90" as="sourcePoint" />
            <mxPoint x="8490" y="140" as="targetPoint" />
            <Array as="points">
              <mxPoint x="8625" y="140" />
              <mxPoint x="8328" y="140" />
            </Array>
          </mxGeometry>
        </mxCell>
        <mxCell id="VTl_a38fpqqt_TvR1LLS-368" value="H_JCVB_mesh_renderer.hpp" style="rounded=1;whiteSpace=wrap;html=1;" vertex="1" parent="1">
          <mxGeometry x="8540" y="30" width="170" height="60" as="geometry" />
        </mxCell>
        <mxCell id="VTl_a38fpqqt_TvR1LLS-369" value="" style="endArrow=classic;html=1;rounded=0;entryX=0.293;entryY=0.045;entryDx=0;entryDy=0;exitX=0.5;exitY=1;exitDx=0;exitDy=0;entryPerimeter=0;" edge="1" source="VTl_a38fpqqt_TvR1LLS-370" target="VTl_a38fpqqt_TvR1LLS-368" parent="1">
          <mxGeometry width="50" height="50" relative="1" as="geometry">
            <mxPoint x="8465" y="-140" as="sourcePoint" />
            <mxPoint x="8580" y="-110" as="targetPoint" />
            <Array as="points">
              <mxPoint x="8545" y="-20" />
              <mxPoint x="8590" y="-20" />
            </Array>
          </mxGeometry>
        </mxCell>
        <mxCell id="VTl_a38fpqqt_TvR1LLS-370" value="H_JCVB_component.hpp" style="rounded=1;whiteSpace=wrap;html=1;" vertex="1" parent="1">
          <mxGeometry x="8470" y="-200" width="150" height="60" as="geometry" />
        </mxCell>
        <mxCell id="VTl_a38fpqqt_TvR1LLS-371" value="H_JCVB_game_object.hpp" style="rounded=1;whiteSpace=wrap;html=1;" vertex="1" parent="1">
          <mxGeometry x="8390" y="-370" width="150" height="60" as="geometry" />
        </mxCell>
        <mxCell id="VTl_a38fpqqt_TvR1LLS-372" value="" style="endArrow=classic;html=1;rounded=0;exitX=0.5;exitY=1;exitDx=0;exitDy=0;entryX=0.5;entryY=0;entryDx=0;entryDy=0;" edge="1" source="VTl_a38fpqqt_TvR1LLS-371" target="VTl_a38fpqqt_TvR1LLS-370" parent="1">
          <mxGeometry width="50" height="50" relative="1" as="geometry">
            <mxPoint x="8550" y="-170" as="sourcePoint" />
            <mxPoint x="8600" y="-220" as="targetPoint" />
            <Array as="points">
              <mxPoint x="8465" y="-250" />
              <mxPoint x="8545" y="-250" />
            </Array>
          </mxGeometry>
        </mxCell>
        <mxCell id="VTl_a38fpqqt_TvR1LLS-373" value="H_JCVB_model.hpp" style="rounded=1;whiteSpace=wrap;html=1;" vertex="1" parent="1">
          <mxGeometry x="8630" y="-200" width="170" height="60" as="geometry" />
        </mxCell>
        <mxCell id="VTl_a38fpqqt_TvR1LLS-374" value="H_JCVB_buffer.hpp" style="rounded=1;whiteSpace=wrap;html=1;" vertex="1" parent="1">
          <mxGeometry x="8560" y="-370" width="150" height="60" as="geometry" />
        </mxCell>
        <mxCell id="VTl_a38fpqqt_TvR1LLS-375" value="H_JCVB_device.hpp" style="rounded=1;whiteSpace=wrap;html=1;" vertex="1" parent="1">
          <mxGeometry x="8725" y="-370" width="120" height="60" as="geometry" />
        </mxCell>
        <mxCell id="VTl_a38fpqqt_TvR1LLS-376" value="H_JCVB_window.hpp" style="rounded=1;whiteSpace=wrap;html=1;" vertex="1" parent="1">
          <mxGeometry x="8710" y="-520" width="150" height="60" as="geometry" />
        </mxCell>
        <mxCell id="VTl_a38fpqqt_TvR1LLS-377" value="" style="endArrow=classic;html=1;rounded=0;exitX=0.5;exitY=1;exitDx=0;exitDy=0;entryX=0.5;entryY=0;entryDx=0;entryDy=0;" edge="1" source="VTl_a38fpqqt_TvR1LLS-376" parent="1">
          <mxGeometry width="50" height="50" relative="1" as="geometry">
            <mxPoint x="8525" y="-290" as="sourcePoint" />
            <mxPoint x="8785" y="-370" as="targetPoint" />
          </mxGeometry>
        </mxCell>
        <mxCell id="VTl_a38fpqqt_TvR1LLS-378" value="" style="endArrow=classic;html=1;rounded=0;exitX=0.5;exitY=1;exitDx=0;exitDy=0;entryX=0.25;entryY=0;entryDx=0;entryDy=0;" edge="1" source="VTl_a38fpqqt_TvR1LLS-374" target="VTl_a38fpqqt_TvR1LLS-373" parent="1">
          <mxGeometry width="50" height="50" relative="1" as="geometry">
            <mxPoint x="8670" y="-150" as="sourcePoint" />
            <mxPoint x="8720" y="-200" as="targetPoint" />
            <Array as="points">
              <mxPoint x="8635" y="-230" />
              <mxPoint x="8673" y="-230" />
            </Array>
          </mxGeometry>
        </mxCell>
        <mxCell id="VTl_a38fpqqt_TvR1LLS-379" value="" style="endArrow=classic;html=1;rounded=0;exitX=0.5;exitY=1;exitDx=0;exitDy=0;entryX=0.75;entryY=0;entryDx=0;entryDy=0;" edge="1" target="VTl_a38fpqqt_TvR1LLS-373" parent="1">
          <mxGeometry width="50" height="50" relative="1" as="geometry">
            <mxPoint x="8785" y="-310" as="sourcePoint" />
            <mxPoint x="8810" y="-200" as="targetPoint" />
            <Array as="points">
              <mxPoint x="8785" y="-230" />
              <mxPoint x="8758" y="-230" />
            </Array>
          </mxGeometry>
        </mxCell>
        <mxCell id="VTl_a38fpqqt_TvR1LLS-380" value="" style="endArrow=classic;html=1;rounded=0;entryX=0.75;entryY=0;entryDx=0;entryDy=0;" edge="1" source="VTl_a38fpqqt_TvR1LLS-373" target="VTl_a38fpqqt_TvR1LLS-368" parent="1">
          <mxGeometry width="50" height="50" relative="1" as="geometry">
            <mxPoint x="8580" y="10" as="sourcePoint" />
            <mxPoint x="8630" y="-40" as="targetPoint" />
            <Array as="points">
              <mxPoint x="8715" y="-20" />
              <mxPoint x="8668" y="-20" />
            </Array>
          </mxGeometry>
        </mxCell>
        <mxCell id="VTl_a38fpqqt_TvR1LLS-381" value="H_JCVB_model.hpp" style="rounded=1;whiteSpace=wrap;html=1;" vertex="1" parent="1">
          <mxGeometry x="7890" y="30" width="170" height="60" as="geometry" />
        </mxCell>
        <mxCell id="VTl_a38fpqqt_TvR1LLS-382" value="H_JCVB_buffer.hpp" style="rounded=1;whiteSpace=wrap;html=1;" vertex="1" parent="1">
          <mxGeometry x="7820" y="-200" width="150" height="60" as="geometry" />
        </mxCell>
        <mxCell id="VTl_a38fpqqt_TvR1LLS-383" value="H_JCVB_device.hpp" style="rounded=1;whiteSpace=wrap;html=1;" vertex="1" parent="1">
          <mxGeometry x="7985" y="-200" width="120" height="60" as="geometry" />
        </mxCell>
        <mxCell id="VTl_a38fpqqt_TvR1LLS-384" value="H_JCVB_window.hpp" style="rounded=1;whiteSpace=wrap;html=1;" vertex="1" parent="1">
          <mxGeometry x="7961" y="-370" width="150" height="60" as="geometry" />
        </mxCell>
        <mxCell id="VTl_a38fpqqt_TvR1LLS-385" value="" style="endArrow=classic;html=1;rounded=0;exitX=0.5;exitY=1;exitDx=0;exitDy=0;entryX=0.5;entryY=0;entryDx=0;entryDy=0;" edge="1" source="VTl_a38fpqqt_TvR1LLS-384" target="VTl_a38fpqqt_TvR1LLS-383" parent="1">
          <mxGeometry width="50" height="50" relative="1" as="geometry">
            <mxPoint x="7896" y="-160" as="sourcePoint" />
            <mxPoint x="7946" y="-210" as="targetPoint" />
          </mxGeometry>
        </mxCell>
        <mxCell id="VTl_a38fpqqt_TvR1LLS-386" value="" style="endArrow=classic;html=1;rounded=0;exitX=0.5;exitY=1;exitDx=0;exitDy=0;entryX=0.25;entryY=0;entryDx=0;entryDy=0;" edge="1" source="VTl_a38fpqqt_TvR1LLS-382" target="VTl_a38fpqqt_TvR1LLS-381" parent="1">
          <mxGeometry width="50" height="50" relative="1" as="geometry">
            <mxPoint x="7930" y="-20" as="sourcePoint" />
            <mxPoint x="7980" y="-70" as="targetPoint" />
            <Array as="points">
              <mxPoint x="7895" y="-100" />
              <mxPoint x="7933" y="-100" />
            </Array>
          </mxGeometry>
        </mxCell>
        <mxCell id="VTl_a38fpqqt_TvR1LLS-387" value="" style="endArrow=classic;html=1;rounded=0;exitX=0.5;exitY=1;exitDx=0;exitDy=0;entryX=0.75;entryY=0;entryDx=0;entryDy=0;" edge="1" source="VTl_a38fpqqt_TvR1LLS-383" target="VTl_a38fpqqt_TvR1LLS-381" parent="1">
          <mxGeometry width="50" height="50" relative="1" as="geometry">
            <mxPoint x="8020" y="-20" as="sourcePoint" />
            <mxPoint x="8070" y="-70" as="targetPoint" />
            <Array as="points">
              <mxPoint x="8045" y="-100" />
              <mxPoint x="8018" y="-100" />
            </Array>
          </mxGeometry>
        </mxCell>
        <mxCell id="VTl_a38fpqqt_TvR1LLS-388" value="H_JCVB_window.hpp" style="rounded=1;whiteSpace=wrap;html=1;" vertex="1" parent="1">
          <mxGeometry x="8131" y="-370" width="150" height="60" as="geometry" />
        </mxCell>
        <mxCell id="VTl_a38fpqqt_TvR1LLS-389" value="" style="endArrow=classic;html=1;rounded=0;exitX=0.5;exitY=1;exitDx=0;exitDy=0;" edge="1" source="VTl_a38fpqqt_TvR1LLS-388" target="VTl_a38fpqqt_TvR1LLS-361" parent="1">
          <mxGeometry width="50" height="50" relative="1" as="geometry">
            <mxPoint x="8141" y="-210" as="sourcePoint" />
            <mxPoint x="8191" y="-260" as="targetPoint" />
          </mxGeometry>
        </mxCell>
        <mxCell id="VTl_a38fpqqt_TvR1LLS-390" value="" style="endArrow=classic;html=1;rounded=0;exitX=0.5;exitY=1;exitDx=0;exitDy=0;entryX=0.25;entryY=0;entryDx=0;entryDy=0;" edge="1" parent="1" source="VTl_a38fpqqt_TvR1LLS-357" target="VTl_a38fpqqt_TvR1LLS-356">
          <mxGeometry width="50" height="50" relative="1" as="geometry">
            <mxPoint x="8120" y="320" as="sourcePoint" />
            <mxPoint x="8170" y="270" as="targetPoint" />
          </mxGeometry>
        </mxCell>
        <mxCell id="VTl_a38fpqqt_TvR1LLS-392" value="H_JCVB_window.hpp" style="rounded=1;whiteSpace=wrap;html=1;" vertex="1" parent="1">
          <mxGeometry x="8880" y="200" width="150" height="60" as="geometry" />
        </mxCell>
        <mxCell id="VTl_a38fpqqt_TvR1LLS-393" value="" style="endArrow=classic;html=1;rounded=0;exitX=0.5;exitY=1;exitDx=0;exitDy=0;entryX=0.75;entryY=0;entryDx=0;entryDy=0;" edge="1" parent="1" source="VTl_a38fpqqt_TvR1LLS-392" target="VTl_a38fpqqt_TvR1LLS-356">
          <mxGeometry width="50" height="50" relative="1" as="geometry">
            <mxPoint x="8630" y="320" as="sourcePoint" />
            <mxPoint x="8680" y="270" as="targetPoint" />
            <Array as="points">
              <mxPoint x="8955" y="300" />
              <mxPoint x="8430" y="300" />
            </Array>
          </mxGeometry>
        </mxCell>
        <mxCell id="VTl_a38fpqqt_TvR1LLS-394" value="H_point_light_system.hpp" style="rounded=1;whiteSpace=wrap;html=1;" vertex="1" parent="1">
          <mxGeometry x="9590" y="360" width="260" height="60" as="geometry" />
        </mxCell>
        <mxCell id="VTl_a38fpqqt_TvR1LLS-395" value="H_JCVB_camera.hpp" style="rounded=1;whiteSpace=wrap;html=1;" vertex="1" parent="1">
          <mxGeometry x="9190" y="200" width="120" height="60" as="geometry" />
        </mxCell>
        <mxCell id="VTl_a38fpqqt_TvR1LLS-399" value="H_JCVB_window.hpp" style="rounded=1;whiteSpace=wrap;html=1;" vertex="1" parent="1">
          <mxGeometry x="7060" y="-10" width="150" height="60" as="geometry" />
        </mxCell>
        <mxCell id="VTl_a38fpqqt_TvR1LLS-400" value="" style="endArrow=classic;html=1;rounded=0;exitX=0.5;exitY=1;exitDx=0;exitDy=0;entryX=0.5;entryY=0;entryDx=0;entryDy=0;" edge="1" parent="1" source="VTl_a38fpqqt_TvR1LLS-399" target="VTl_a38fpqqt_TvR1LLS-346">
          <mxGeometry width="50" height="50" relative="1" as="geometry">
            <mxPoint x="7040" y="190" as="sourcePoint" />
            <mxPoint x="7090" y="140" as="targetPoint" />
          </mxGeometry>
        </mxCell>
        <mxCell id="VTl_a38fpqqt_TvR1LLS-401" value="H_JCVB_device.hpp" style="rounded=1;whiteSpace=wrap;html=1;" vertex="1" parent="1">
          <mxGeometry x="9330" y="200" width="160" height="60" as="geometry" />
        </mxCell>
        <mxCell id="VTl_a38fpqqt_TvR1LLS-402" value="H_JCVB_window.hpp" style="rounded=1;whiteSpace=wrap;html=1;" vertex="1" parent="1">
          <mxGeometry x="9335" y="30" width="150" height="60" as="geometry" />
        </mxCell>
        <mxCell id="VTl_a38fpqqt_TvR1LLS-403" value="" style="endArrow=classic;html=1;rounded=0;exitX=0.5;exitY=1;exitDx=0;exitDy=0;" edge="1" source="VTl_a38fpqqt_TvR1LLS-402" target="VTl_a38fpqqt_TvR1LLS-401" parent="1">
          <mxGeometry width="50" height="50" relative="1" as="geometry">
            <mxPoint x="9420" y="200" as="sourcePoint" />
            <mxPoint x="9470" y="150" as="targetPoint" />
          </mxGeometry>
        </mxCell>
        <mxCell id="VTl_a38fpqqt_TvR1LLS-404" value="H_JCVB_frame_info.hpp" style="rounded=1;whiteSpace=wrap;html=1;" vertex="1" parent="1">
          <mxGeometry x="9645" y="200" width="150" height="60" as="geometry" />
        </mxCell>
        <mxCell id="VTl_a38fpqqt_TvR1LLS-405" value="H_JCVB_camera.hpp" style="rounded=1;whiteSpace=wrap;html=1;" vertex="1" parent="1">
          <mxGeometry x="9510" y="30" width="120" height="60" as="geometry" />
        </mxCell>
        <mxCell id="VTl_a38fpqqt_TvR1LLS-406" value="H_JCVB_descriptor.hpp" style="rounded=1;whiteSpace=wrap;html=1;" vertex="1" parent="1">
          <mxGeometry x="9640" y="30" width="160" height="60" as="geometry" />
        </mxCell>
        <mxCell id="VTl_a38fpqqt_TvR1LLS-407" value="" style="endArrow=classic;html=1;rounded=0;entryX=0.5;entryY=0;entryDx=0;entryDy=0;exitX=0.5;exitY=1;exitDx=0;exitDy=0;" edge="1" source="VTl_a38fpqqt_TvR1LLS-408" target="VTl_a38fpqqt_TvR1LLS-406" parent="1">
          <mxGeometry width="50" height="50" relative="1" as="geometry">
            <mxPoint x="9720" y="-60" as="sourcePoint" />
            <mxPoint x="9760" y="-90" as="targetPoint" />
          </mxGeometry>
        </mxCell>
        <mxCell id="VTl_a38fpqqt_TvR1LLS-408" value="H_JCVB_device.hpp" style="rounded=1;whiteSpace=wrap;html=1;" vertex="1" parent="1">
          <mxGeometry x="9660" y="-180" width="120" height="60" as="geometry" />
        </mxCell>
        <mxCell id="VTl_a38fpqqt_TvR1LLS-409" value="H_JCVB_window.hpp" style="rounded=1;whiteSpace=wrap;html=1;" vertex="1" parent="1">
          <mxGeometry x="9645" y="-370" width="150" height="60" as="geometry" />
        </mxCell>
        <mxCell id="VTl_a38fpqqt_TvR1LLS-410" value="" style="endArrow=classic;html=1;rounded=0;exitX=0.5;exitY=1;exitDx=0;exitDy=0;entryX=0.5;entryY=0;entryDx=0;entryDy=0;" edge="1" source="VTl_a38fpqqt_TvR1LLS-409" target="VTl_a38fpqqt_TvR1LLS-408" parent="1">
          <mxGeometry width="50" height="50" relative="1" as="geometry">
            <mxPoint x="9720" y="-160" as="sourcePoint" />
            <mxPoint x="9770" y="-210" as="targetPoint" />
          </mxGeometry>
        </mxCell>
        <mxCell id="VTl_a38fpqqt_TvR1LLS-411" value="" style="endArrow=classic;html=1;rounded=0;exitX=0.5;exitY=1;exitDx=0;exitDy=0;entryX=0.25;entryY=0;entryDx=0;entryDy=0;" edge="1" source="VTl_a38fpqqt_TvR1LLS-405" target="VTl_a38fpqqt_TvR1LLS-404" parent="1">
          <mxGeometry width="50" height="50" relative="1" as="geometry">
            <mxPoint x="9590" y="240" as="sourcePoint" />
            <mxPoint x="9640" y="190" as="targetPoint" />
            <Array as="points">
              <mxPoint x="9570" y="150" />
              <mxPoint x="9680" y="150" />
            </Array>
          </mxGeometry>
        </mxCell>
        <mxCell id="VTl_a38fpqqt_TvR1LLS-412" value="" style="endArrow=classic;html=1;rounded=0;exitX=0.5;exitY=1;exitDx=0;exitDy=0;entryX=0.5;entryY=0;entryDx=0;entryDy=0;" edge="1" source="VTl_a38fpqqt_TvR1LLS-406" target="VTl_a38fpqqt_TvR1LLS-404" parent="1">
          <mxGeometry width="50" height="50" relative="1" as="geometry">
            <mxPoint x="9760" y="190" as="sourcePoint" />
            <mxPoint x="9810" y="140" as="targetPoint" />
          </mxGeometry>
        </mxCell>
        <mxCell id="VTl_a38fpqqt_TvR1LLS-413" value="" style="endArrow=classic;html=1;rounded=0;exitX=0.5;exitY=1;exitDx=0;exitDy=0;entryX=0.75;entryY=0;entryDx=0;entryDy=0;" edge="1" source="VTl_a38fpqqt_TvR1LLS-414" target="VTl_a38fpqqt_TvR1LLS-404" parent="1">
          <mxGeometry width="50" height="50" relative="1" as="geometry">
            <mxPoint x="10130" y="90" as="sourcePoint" />
            <mxPoint x="9990" y="140" as="targetPoint" />
            <Array as="points">
              <mxPoint x="10290" y="150" />
              <mxPoint x="9758" y="150" />
            </Array>
          </mxGeometry>
        </mxCell>
        <mxCell id="VTl_a38fpqqt_TvR1LLS-414" value="H_JCVB_game_object.hpp" style="rounded=1;whiteSpace=wrap;html=1;" vertex="1" parent="1">
          <mxGeometry x="10215" y="30" width="150" height="60" as="geometry" />
        </mxCell>
        <mxCell id="VTl_a38fpqqt_TvR1LLS-415" value="H_JCVB_texture.hpp" style="rounded=1;whiteSpace=wrap;html=1;" vertex="1" parent="1">
          <mxGeometry x="10131" y="-140" width="150" height="60" as="geometry" />
        </mxCell>
        <mxCell id="VTl_a38fpqqt_TvR1LLS-416" value="H_JCVB_component.hpp" style="rounded=1;whiteSpace=wrap;html=1;" vertex="1" parent="1">
          <mxGeometry x="10300" y="-140" width="150" height="60" as="geometry" />
        </mxCell>
        <mxCell id="VTl_a38fpqqt_TvR1LLS-417" value="H_JCVB_game_object.hpp" style="rounded=1;whiteSpace=wrap;html=1;" vertex="1" parent="1">
          <mxGeometry x="10300" y="-370" width="150" height="60" as="geometry" />
        </mxCell>
        <mxCell id="VTl_a38fpqqt_TvR1LLS-418" value="H_JCVB_device.hpp" style="rounded=1;whiteSpace=wrap;html=1;" vertex="1" parent="1">
          <mxGeometry x="10131" y="-370" width="150" height="60" as="geometry" />
        </mxCell>
        <mxCell id="VTl_a38fpqqt_TvR1LLS-419" value="" style="endArrow=classic;html=1;rounded=0;exitX=0.5;exitY=1;exitDx=0;exitDy=0;" edge="1" parent="1">
          <mxGeometry width="50" height="50" relative="1" as="geometry">
            <mxPoint x="10205" y="-290" as="sourcePoint" />
            <mxPoint x="10205" y="-140" as="targetPoint" />
          </mxGeometry>
        </mxCell>
        <mxCell id="VTl_a38fpqqt_TvR1LLS-420" value="" style="endArrow=classic;html=1;rounded=0;exitX=0.5;exitY=1;exitDx=0;exitDy=0;" edge="1" source="VTl_a38fpqqt_TvR1LLS-417" target="VTl_a38fpqqt_TvR1LLS-416" parent="1">
          <mxGeometry width="50" height="50" relative="1" as="geometry">
            <mxPoint x="10380" y="-210" as="sourcePoint" />
            <mxPoint x="10430" y="-260" as="targetPoint" />
          </mxGeometry>
        </mxCell>
        <mxCell id="VTl_a38fpqqt_TvR1LLS-421" value="" style="endArrow=classic;html=1;rounded=0;exitX=0.5;exitY=1;exitDx=0;exitDy=0;" edge="1" parent="1">
          <mxGeometry width="50" height="50" relative="1" as="geometry">
            <mxPoint x="10205" y="-80" as="sourcePoint" />
            <mxPoint x="10270" y="30" as="targetPoint" />
            <Array as="points">
              <mxPoint x="10205" y="-50" />
              <mxPoint x="10270" y="-50" />
            </Array>
          </mxGeometry>
        </mxCell>
        <mxCell id="VTl_a38fpqqt_TvR1LLS-422" value="" style="endArrow=classic;html=1;rounded=0;exitX=0.5;exitY=1;exitDx=0;exitDy=0;" edge="1" source="VTl_a38fpqqt_TvR1LLS-416" parent="1">
          <mxGeometry width="50" height="50" relative="1" as="geometry">
            <mxPoint x="10380" y="-20" as="sourcePoint" />
            <mxPoint x="10300" y="30" as="targetPoint" />
            <Array as="points">
              <mxPoint x="10375" y="-50" />
              <mxPoint x="10301" y="-50" />
            </Array>
          </mxGeometry>
        </mxCell>
        <mxCell id="VTl_a38fpqqt_TvR1LLS-423" value="" style="endArrow=classic;html=1;rounded=0;exitX=0.5;exitY=1;exitDx=0;exitDy=0;entryX=0.25;entryY=0;entryDx=0;entryDy=0;" edge="1" source="VTl_a38fpqqt_TvR1LLS-438" target="VTl_a38fpqqt_TvR1LLS-414" parent="1">
          <mxGeometry width="50" height="50" relative="1" as="geometry">
            <mxPoint x="10045" y="-80" as="sourcePoint" />
            <mxPoint x="10060" y="-70" as="targetPoint" />
            <Array as="points">
              <mxPoint x="9975" y="-30" />
              <mxPoint x="10253" y="-30" />
            </Array>
          </mxGeometry>
        </mxCell>
        <mxCell id="VTl_a38fpqqt_TvR1LLS-424" value="" style="endArrow=classic;html=1;rounded=0;exitX=0.5;exitY=1;exitDx=0;exitDy=0;entryX=0.75;entryY=0;entryDx=0;entryDy=0;" edge="1" source="VTl_a38fpqqt_TvR1LLS-425" target="VTl_a38fpqqt_TvR1LLS-414" parent="1">
          <mxGeometry width="50" height="50" relative="1" as="geometry">
            <mxPoint x="10545" y="-80" as="sourcePoint" />
            <mxPoint x="10490" y="-30" as="targetPoint" />
            <Array as="points">
              <mxPoint x="10625" y="-30" />
              <mxPoint x="10328" y="-30" />
            </Array>
          </mxGeometry>
        </mxCell>
        <mxCell id="VTl_a38fpqqt_TvR1LLS-425" value="H_JCVB_mesh_renderer.hpp" style="rounded=1;whiteSpace=wrap;html=1;" vertex="1" parent="1">
          <mxGeometry x="10540" y="-140" width="170" height="60" as="geometry" />
        </mxCell>
        <mxCell id="VTl_a38fpqqt_TvR1LLS-426" value="" style="endArrow=classic;html=1;rounded=0;entryX=0.293;entryY=0.045;entryDx=0;entryDy=0;exitX=0.5;exitY=1;exitDx=0;exitDy=0;entryPerimeter=0;" edge="1" source="VTl_a38fpqqt_TvR1LLS-427" target="VTl_a38fpqqt_TvR1LLS-425" parent="1">
          <mxGeometry width="50" height="50" relative="1" as="geometry">
            <mxPoint x="10465" y="-310" as="sourcePoint" />
            <mxPoint x="10580" y="-280" as="targetPoint" />
            <Array as="points">
              <mxPoint x="10545" y="-190" />
              <mxPoint x="10590" y="-190" />
            </Array>
          </mxGeometry>
        </mxCell>
        <mxCell id="VTl_a38fpqqt_TvR1LLS-427" value="H_JCVB_component.hpp" style="rounded=1;whiteSpace=wrap;html=1;" vertex="1" parent="1">
          <mxGeometry x="10470" y="-370" width="150" height="60" as="geometry" />
        </mxCell>
        <mxCell id="VTl_a38fpqqt_TvR1LLS-428" value="H_JCVB_game_object.hpp" style="rounded=1;whiteSpace=wrap;html=1;" vertex="1" parent="1">
          <mxGeometry x="10390" y="-540" width="150" height="60" as="geometry" />
        </mxCell>
        <mxCell id="VTl_a38fpqqt_TvR1LLS-429" value="" style="endArrow=classic;html=1;rounded=0;exitX=0.5;exitY=1;exitDx=0;exitDy=0;entryX=0.5;entryY=0;entryDx=0;entryDy=0;" edge="1" source="VTl_a38fpqqt_TvR1LLS-428" target="VTl_a38fpqqt_TvR1LLS-427" parent="1">
          <mxGeometry width="50" height="50" relative="1" as="geometry">
            <mxPoint x="10550" y="-340" as="sourcePoint" />
            <mxPoint x="10600" y="-390" as="targetPoint" />
            <Array as="points">
              <mxPoint x="10465" y="-420" />
              <mxPoint x="10545" y="-420" />
            </Array>
          </mxGeometry>
        </mxCell>
        <mxCell id="VTl_a38fpqqt_TvR1LLS-430" value="H_JCVB_model.hpp" style="rounded=1;whiteSpace=wrap;html=1;" vertex="1" parent="1">
          <mxGeometry x="10630" y="-370" width="170" height="60" as="geometry" />
        </mxCell>
        <mxCell id="VTl_a38fpqqt_TvR1LLS-431" value="H_JCVB_buffer.hpp" style="rounded=1;whiteSpace=wrap;html=1;" vertex="1" parent="1">
          <mxGeometry x="10560" y="-540" width="150" height="60" as="geometry" />
        </mxCell>
        <mxCell id="VTl_a38fpqqt_TvR1LLS-432" value="H_JCVB_device.hpp" style="rounded=1;whiteSpace=wrap;html=1;" vertex="1" parent="1">
          <mxGeometry x="10725" y="-540" width="120" height="60" as="geometry" />
        </mxCell>
        <mxCell id="VTl_a38fpqqt_TvR1LLS-433" value="H_JCVB_window.hpp" style="rounded=1;whiteSpace=wrap;html=1;" vertex="1" parent="1">
          <mxGeometry x="10710" y="-690" width="150" height="60" as="geometry" />
        </mxCell>
        <mxCell id="VTl_a38fpqqt_TvR1LLS-434" value="" style="endArrow=classic;html=1;rounded=0;exitX=0.5;exitY=1;exitDx=0;exitDy=0;entryX=0.5;entryY=0;entryDx=0;entryDy=0;" edge="1" source="VTl_a38fpqqt_TvR1LLS-433" parent="1">
          <mxGeometry width="50" height="50" relative="1" as="geometry">
            <mxPoint x="10525" y="-460" as="sourcePoint" />
            <mxPoint x="10785" y="-540" as="targetPoint" />
          </mxGeometry>
        </mxCell>
        <mxCell id="VTl_a38fpqqt_TvR1LLS-435" value="" style="endArrow=classic;html=1;rounded=0;exitX=0.5;exitY=1;exitDx=0;exitDy=0;entryX=0.25;entryY=0;entryDx=0;entryDy=0;" edge="1" source="VTl_a38fpqqt_TvR1LLS-431" target="VTl_a38fpqqt_TvR1LLS-430" parent="1">
          <mxGeometry width="50" height="50" relative="1" as="geometry">
            <mxPoint x="10670" y="-320" as="sourcePoint" />
            <mxPoint x="10720" y="-370" as="targetPoint" />
            <Array as="points">
              <mxPoint x="10635" y="-400" />
              <mxPoint x="10673" y="-400" />
            </Array>
          </mxGeometry>
        </mxCell>
        <mxCell id="VTl_a38fpqqt_TvR1LLS-436" value="" style="endArrow=classic;html=1;rounded=0;exitX=0.5;exitY=1;exitDx=0;exitDy=0;entryX=0.75;entryY=0;entryDx=0;entryDy=0;" edge="1" target="VTl_a38fpqqt_TvR1LLS-430" parent="1">
          <mxGeometry width="50" height="50" relative="1" as="geometry">
            <mxPoint x="10785" y="-480" as="sourcePoint" />
            <mxPoint x="10810" y="-370" as="targetPoint" />
            <Array as="points">
              <mxPoint x="10785" y="-400" />
              <mxPoint x="10758" y="-400" />
            </Array>
          </mxGeometry>
        </mxCell>
        <mxCell id="VTl_a38fpqqt_TvR1LLS-437" value="" style="endArrow=classic;html=1;rounded=0;entryX=0.75;entryY=0;entryDx=0;entryDy=0;" edge="1" source="VTl_a38fpqqt_TvR1LLS-430" target="VTl_a38fpqqt_TvR1LLS-425" parent="1">
          <mxGeometry width="50" height="50" relative="1" as="geometry">
            <mxPoint x="10580" y="-160" as="sourcePoint" />
            <mxPoint x="10630" y="-210" as="targetPoint" />
            <Array as="points">
              <mxPoint x="10715" y="-190" />
              <mxPoint x="10668" y="-190" />
            </Array>
          </mxGeometry>
        </mxCell>
        <mxCell id="VTl_a38fpqqt_TvR1LLS-438" value="H_JCVB_model.hpp" style="rounded=1;whiteSpace=wrap;html=1;" vertex="1" parent="1">
          <mxGeometry x="9890" y="-140" width="170" height="60" as="geometry" />
        </mxCell>
        <mxCell id="VTl_a38fpqqt_TvR1LLS-439" value="H_JCVB_buffer.hpp" style="rounded=1;whiteSpace=wrap;html=1;" vertex="1" parent="1">
          <mxGeometry x="9820" y="-370" width="150" height="60" as="geometry" />
        </mxCell>
        <mxCell id="VTl_a38fpqqt_TvR1LLS-440" value="H_JCVB_device.hpp" style="rounded=1;whiteSpace=wrap;html=1;" vertex="1" parent="1">
          <mxGeometry x="9985" y="-370" width="120" height="60" as="geometry" />
        </mxCell>
        <mxCell id="VTl_a38fpqqt_TvR1LLS-441" value="H_JCVB_window.hpp" style="rounded=1;whiteSpace=wrap;html=1;" vertex="1" parent="1">
          <mxGeometry x="9961" y="-540" width="150" height="60" as="geometry" />
        </mxCell>
        <mxCell id="VTl_a38fpqqt_TvR1LLS-442" value="" style="endArrow=classic;html=1;rounded=0;exitX=0.5;exitY=1;exitDx=0;exitDy=0;entryX=0.5;entryY=0;entryDx=0;entryDy=0;" edge="1" source="VTl_a38fpqqt_TvR1LLS-441" target="VTl_a38fpqqt_TvR1LLS-440" parent="1">
          <mxGeometry width="50" height="50" relative="1" as="geometry">
            <mxPoint x="9896" y="-330" as="sourcePoint" />
            <mxPoint x="9946" y="-380" as="targetPoint" />
          </mxGeometry>
        </mxCell>
        <mxCell id="VTl_a38fpqqt_TvR1LLS-443" value="" style="endArrow=classic;html=1;rounded=0;exitX=0.5;exitY=1;exitDx=0;exitDy=0;entryX=0.25;entryY=0;entryDx=0;entryDy=0;" edge="1" source="VTl_a38fpqqt_TvR1LLS-439" target="VTl_a38fpqqt_TvR1LLS-438" parent="1">
          <mxGeometry width="50" height="50" relative="1" as="geometry">
            <mxPoint x="9930" y="-190" as="sourcePoint" />
            <mxPoint x="9980" y="-240" as="targetPoint" />
            <Array as="points">
              <mxPoint x="9895" y="-270" />
              <mxPoint x="9933" y="-270" />
            </Array>
          </mxGeometry>
        </mxCell>
        <mxCell id="VTl_a38fpqqt_TvR1LLS-444" value="" style="endArrow=classic;html=1;rounded=0;exitX=0.5;exitY=1;exitDx=0;exitDy=0;entryX=0.75;entryY=0;entryDx=0;entryDy=0;" edge="1" source="VTl_a38fpqqt_TvR1LLS-440" target="VTl_a38fpqqt_TvR1LLS-438" parent="1">
          <mxGeometry width="50" height="50" relative="1" as="geometry">
            <mxPoint x="10020" y="-190" as="sourcePoint" />
            <mxPoint x="10070" y="-240" as="targetPoint" />
            <Array as="points">
              <mxPoint x="10045" y="-270" />
              <mxPoint x="10018" y="-270" />
            </Array>
          </mxGeometry>
        </mxCell>
        <mxCell id="VTl_a38fpqqt_TvR1LLS-445" value="H_JCVB_window.hpp" style="rounded=1;whiteSpace=wrap;html=1;" vertex="1" parent="1">
          <mxGeometry x="10131" y="-540" width="150" height="60" as="geometry" />
        </mxCell>
        <mxCell id="VTl_a38fpqqt_TvR1LLS-446" value="" style="endArrow=classic;html=1;rounded=0;exitX=0.5;exitY=1;exitDx=0;exitDy=0;" edge="1" source="VTl_a38fpqqt_TvR1LLS-445" target="VTl_a38fpqqt_TvR1LLS-418" parent="1">
          <mxGeometry width="50" height="50" relative="1" as="geometry">
            <mxPoint x="10141" y="-380" as="sourcePoint" />
            <mxPoint x="10191" y="-430" as="targetPoint" />
          </mxGeometry>
        </mxCell>
        <mxCell id="VTl_a38fpqqt_TvR1LLS-447" value="H_JCVB_game_object.hpp" style="rounded=1;whiteSpace=wrap;html=1;" vertex="1" parent="1">
          <mxGeometry x="11275" y="200" width="150" height="60" as="geometry" />
        </mxCell>
        <mxCell id="VTl_a38fpqqt_TvR1LLS-448" value="H_JCVB_texture.hpp" style="rounded=1;whiteSpace=wrap;html=1;" vertex="1" parent="1">
          <mxGeometry x="11191" y="30" width="150" height="60" as="geometry" />
        </mxCell>
        <mxCell id="VTl_a38fpqqt_TvR1LLS-449" value="H_JCVB_component.hpp" style="rounded=1;whiteSpace=wrap;html=1;" vertex="1" parent="1">
          <mxGeometry x="11360" y="30" width="150" height="60" as="geometry" />
        </mxCell>
        <mxCell id="VTl_a38fpqqt_TvR1LLS-450" value="H_JCVB_game_object.hpp" style="rounded=1;whiteSpace=wrap;html=1;" vertex="1" parent="1">
          <mxGeometry x="11360" y="-200" width="150" height="60" as="geometry" />
        </mxCell>
        <mxCell id="VTl_a38fpqqt_TvR1LLS-451" value="H_JCVB_device.hpp" style="rounded=1;whiteSpace=wrap;html=1;" vertex="1" parent="1">
          <mxGeometry x="11191" y="-200" width="150" height="60" as="geometry" />
        </mxCell>
        <mxCell id="VTl_a38fpqqt_TvR1LLS-452" value="" style="endArrow=classic;html=1;rounded=0;exitX=0.5;exitY=1;exitDx=0;exitDy=0;" edge="1" parent="1">
          <mxGeometry width="50" height="50" relative="1" as="geometry">
            <mxPoint x="11265" y="-120" as="sourcePoint" />
            <mxPoint x="11265" y="30" as="targetPoint" />
          </mxGeometry>
        </mxCell>
        <mxCell id="VTl_a38fpqqt_TvR1LLS-453" value="" style="endArrow=classic;html=1;rounded=0;exitX=0.5;exitY=1;exitDx=0;exitDy=0;" edge="1" source="VTl_a38fpqqt_TvR1LLS-450" target="VTl_a38fpqqt_TvR1LLS-449" parent="1">
          <mxGeometry width="50" height="50" relative="1" as="geometry">
            <mxPoint x="11440" y="-40" as="sourcePoint" />
            <mxPoint x="11490" y="-90" as="targetPoint" />
          </mxGeometry>
        </mxCell>
        <mxCell id="VTl_a38fpqqt_TvR1LLS-454" value="" style="endArrow=classic;html=1;rounded=0;" edge="1" parent="1" source="VTl_a38fpqqt_TvR1LLS-448">
          <mxGeometry width="50" height="50" relative="1" as="geometry">
            <mxPoint x="11265" y="90" as="sourcePoint" />
            <mxPoint x="11330" y="200" as="targetPoint" />
            <Array as="points">
              <mxPoint x="11265" y="120" />
              <mxPoint x="11330" y="120" />
            </Array>
          </mxGeometry>
        </mxCell>
        <mxCell id="VTl_a38fpqqt_TvR1LLS-455" value="" style="endArrow=classic;html=1;rounded=0;exitX=0.5;exitY=1;exitDx=0;exitDy=0;" edge="1" source="VTl_a38fpqqt_TvR1LLS-449" parent="1">
          <mxGeometry width="50" height="50" relative="1" as="geometry">
            <mxPoint x="11440" y="150" as="sourcePoint" />
            <mxPoint x="11360" y="200" as="targetPoint" />
            <Array as="points">
              <mxPoint x="11435" y="120" />
              <mxPoint x="11361" y="120" />
            </Array>
          </mxGeometry>
        </mxCell>
        <mxCell id="VTl_a38fpqqt_TvR1LLS-456" value="" style="endArrow=classic;html=1;rounded=0;exitX=0.5;exitY=1;exitDx=0;exitDy=0;entryX=0.25;entryY=0;entryDx=0;entryDy=0;" edge="1" source="VTl_a38fpqqt_TvR1LLS-471" target="VTl_a38fpqqt_TvR1LLS-447" parent="1">
          <mxGeometry width="50" height="50" relative="1" as="geometry">
            <mxPoint x="11105" y="90" as="sourcePoint" />
            <mxPoint x="11120" y="100" as="targetPoint" />
            <Array as="points">
              <mxPoint x="11035" y="140" />
              <mxPoint x="11313" y="140" />
            </Array>
          </mxGeometry>
        </mxCell>
        <mxCell id="VTl_a38fpqqt_TvR1LLS-457" value="" style="endArrow=classic;html=1;rounded=0;exitX=0.5;exitY=1;exitDx=0;exitDy=0;entryX=0.75;entryY=0;entryDx=0;entryDy=0;" edge="1" source="VTl_a38fpqqt_TvR1LLS-458" target="VTl_a38fpqqt_TvR1LLS-447" parent="1">
          <mxGeometry width="50" height="50" relative="1" as="geometry">
            <mxPoint x="11605" y="90" as="sourcePoint" />
            <mxPoint x="11550" y="140" as="targetPoint" />
            <Array as="points">
              <mxPoint x="11685" y="140" />
              <mxPoint x="11388" y="140" />
            </Array>
          </mxGeometry>
        </mxCell>
        <mxCell id="VTl_a38fpqqt_TvR1LLS-458" value="H_JCVB_mesh_renderer.hpp" style="rounded=1;whiteSpace=wrap;html=1;" vertex="1" parent="1">
          <mxGeometry x="11600" y="30" width="170" height="60" as="geometry" />
        </mxCell>
        <mxCell id="VTl_a38fpqqt_TvR1LLS-459" value="" style="endArrow=classic;html=1;rounded=0;entryX=0.293;entryY=0.045;entryDx=0;entryDy=0;exitX=0.5;exitY=1;exitDx=0;exitDy=0;entryPerimeter=0;" edge="1" source="VTl_a38fpqqt_TvR1LLS-460" target="VTl_a38fpqqt_TvR1LLS-458" parent="1">
          <mxGeometry width="50" height="50" relative="1" as="geometry">
            <mxPoint x="11525" y="-140" as="sourcePoint" />
            <mxPoint x="11640" y="-110" as="targetPoint" />
            <Array as="points">
              <mxPoint x="11605" y="-20" />
              <mxPoint x="11650" y="-20" />
            </Array>
          </mxGeometry>
        </mxCell>
        <mxCell id="VTl_a38fpqqt_TvR1LLS-460" value="H_JCVB_component.hpp" style="rounded=1;whiteSpace=wrap;html=1;" vertex="1" parent="1">
          <mxGeometry x="11530" y="-200" width="150" height="60" as="geometry" />
        </mxCell>
        <mxCell id="VTl_a38fpqqt_TvR1LLS-461" value="H_JCVB_game_object.hpp" style="rounded=1;whiteSpace=wrap;html=1;" vertex="1" parent="1">
          <mxGeometry x="11450" y="-370" width="150" height="60" as="geometry" />
        </mxCell>
        <mxCell id="VTl_a38fpqqt_TvR1LLS-462" value="" style="endArrow=classic;html=1;rounded=0;exitX=0.5;exitY=1;exitDx=0;exitDy=0;entryX=0.5;entryY=0;entryDx=0;entryDy=0;" edge="1" source="VTl_a38fpqqt_TvR1LLS-461" target="VTl_a38fpqqt_TvR1LLS-460" parent="1">
          <mxGeometry width="50" height="50" relative="1" as="geometry">
            <mxPoint x="11610" y="-170" as="sourcePoint" />
            <mxPoint x="11660" y="-220" as="targetPoint" />
            <Array as="points">
              <mxPoint x="11525" y="-250" />
              <mxPoint x="11605" y="-250" />
            </Array>
          </mxGeometry>
        </mxCell>
        <mxCell id="VTl_a38fpqqt_TvR1LLS-463" value="H_JCVB_model.hpp" style="rounded=1;whiteSpace=wrap;html=1;" vertex="1" parent="1">
          <mxGeometry x="11690" y="-200" width="170" height="60" as="geometry" />
        </mxCell>
        <mxCell id="VTl_a38fpqqt_TvR1LLS-464" value="H_JCVB_buffer.hpp" style="rounded=1;whiteSpace=wrap;html=1;" vertex="1" parent="1">
          <mxGeometry x="11620" y="-370" width="150" height="60" as="geometry" />
        </mxCell>
        <mxCell id="VTl_a38fpqqt_TvR1LLS-465" value="H_JCVB_device.hpp" style="rounded=1;whiteSpace=wrap;html=1;" vertex="1" parent="1">
          <mxGeometry x="11785" y="-370" width="120" height="60" as="geometry" />
        </mxCell>
        <mxCell id="VTl_a38fpqqt_TvR1LLS-466" value="H_JCVB_window.hpp" style="rounded=1;whiteSpace=wrap;html=1;" vertex="1" parent="1">
          <mxGeometry x="11770" y="-520" width="150" height="60" as="geometry" />
        </mxCell>
        <mxCell id="VTl_a38fpqqt_TvR1LLS-467" value="" style="endArrow=classic;html=1;rounded=0;exitX=0.5;exitY=1;exitDx=0;exitDy=0;entryX=0.5;entryY=0;entryDx=0;entryDy=0;" edge="1" source="VTl_a38fpqqt_TvR1LLS-466" parent="1">
          <mxGeometry width="50" height="50" relative="1" as="geometry">
            <mxPoint x="11585" y="-290" as="sourcePoint" />
            <mxPoint x="11845" y="-370" as="targetPoint" />
          </mxGeometry>
        </mxCell>
        <mxCell id="VTl_a38fpqqt_TvR1LLS-468" value="" style="endArrow=classic;html=1;rounded=0;exitX=0.5;exitY=1;exitDx=0;exitDy=0;entryX=0.25;entryY=0;entryDx=0;entryDy=0;" edge="1" source="VTl_a38fpqqt_TvR1LLS-464" target="VTl_a38fpqqt_TvR1LLS-463" parent="1">
          <mxGeometry width="50" height="50" relative="1" as="geometry">
            <mxPoint x="11730" y="-150" as="sourcePoint" />
            <mxPoint x="11780" y="-200" as="targetPoint" />
            <Array as="points">
              <mxPoint x="11695" y="-230" />
              <mxPoint x="11733" y="-230" />
            </Array>
          </mxGeometry>
        </mxCell>
        <mxCell id="VTl_a38fpqqt_TvR1LLS-469" value="" style="endArrow=classic;html=1;rounded=0;exitX=0.5;exitY=1;exitDx=0;exitDy=0;entryX=0.75;entryY=0;entryDx=0;entryDy=0;" edge="1" target="VTl_a38fpqqt_TvR1LLS-463" parent="1">
          <mxGeometry width="50" height="50" relative="1" as="geometry">
            <mxPoint x="11845" y="-310" as="sourcePoint" />
            <mxPoint x="11870" y="-200" as="targetPoint" />
            <Array as="points">
              <mxPoint x="11845" y="-230" />
              <mxPoint x="11818" y="-230" />
            </Array>
          </mxGeometry>
        </mxCell>
        <mxCell id="VTl_a38fpqqt_TvR1LLS-470" value="" style="endArrow=classic;html=1;rounded=0;entryX=0.75;entryY=0;entryDx=0;entryDy=0;" edge="1" source="VTl_a38fpqqt_TvR1LLS-463" target="VTl_a38fpqqt_TvR1LLS-458" parent="1">
          <mxGeometry width="50" height="50" relative="1" as="geometry">
            <mxPoint x="11640" y="10" as="sourcePoint" />
            <mxPoint x="11690" y="-40" as="targetPoint" />
            <Array as="points">
              <mxPoint x="11775" y="-20" />
              <mxPoint x="11728" y="-20" />
            </Array>
          </mxGeometry>
        </mxCell>
        <mxCell id="VTl_a38fpqqt_TvR1LLS-471" value="H_JCVB_model.hpp" style="rounded=1;whiteSpace=wrap;html=1;" vertex="1" parent="1">
          <mxGeometry x="10950" y="30" width="170" height="60" as="geometry" />
        </mxCell>
        <mxCell id="VTl_a38fpqqt_TvR1LLS-472" value="H_JCVB_buffer.hpp" style="rounded=1;whiteSpace=wrap;html=1;" vertex="1" parent="1">
          <mxGeometry x="10880" y="-200" width="150" height="60" as="geometry" />
        </mxCell>
        <mxCell id="VTl_a38fpqqt_TvR1LLS-473" value="H_JCVB_device.hpp" style="rounded=1;whiteSpace=wrap;html=1;" vertex="1" parent="1">
          <mxGeometry x="11045" y="-200" width="120" height="60" as="geometry" />
        </mxCell>
        <mxCell id="VTl_a38fpqqt_TvR1LLS-474" value="H_JCVB_window.hpp" style="rounded=1;whiteSpace=wrap;html=1;" vertex="1" parent="1">
          <mxGeometry x="11021" y="-370" width="150" height="60" as="geometry" />
        </mxCell>
        <mxCell id="VTl_a38fpqqt_TvR1LLS-475" value="" style="endArrow=classic;html=1;rounded=0;exitX=0.5;exitY=1;exitDx=0;exitDy=0;entryX=0.5;entryY=0;entryDx=0;entryDy=0;" edge="1" source="VTl_a38fpqqt_TvR1LLS-474" target="VTl_a38fpqqt_TvR1LLS-473" parent="1">
          <mxGeometry width="50" height="50" relative="1" as="geometry">
            <mxPoint x="10956" y="-160" as="sourcePoint" />
            <mxPoint x="11006" y="-210" as="targetPoint" />
          </mxGeometry>
        </mxCell>
        <mxCell id="VTl_a38fpqqt_TvR1LLS-476" value="" style="endArrow=classic;html=1;rounded=0;exitX=0.5;exitY=1;exitDx=0;exitDy=0;entryX=0.25;entryY=0;entryDx=0;entryDy=0;" edge="1" source="VTl_a38fpqqt_TvR1LLS-472" target="VTl_a38fpqqt_TvR1LLS-471" parent="1">
          <mxGeometry width="50" height="50" relative="1" as="geometry">
            <mxPoint x="10990" y="-20" as="sourcePoint" />
            <mxPoint x="11040" y="-70" as="targetPoint" />
            <Array as="points">
              <mxPoint x="10955" y="-100" />
              <mxPoint x="10993" y="-100" />
            </Array>
          </mxGeometry>
        </mxCell>
        <mxCell id="VTl_a38fpqqt_TvR1LLS-477" value="" style="endArrow=classic;html=1;rounded=0;exitX=0.5;exitY=1;exitDx=0;exitDy=0;entryX=0.75;entryY=0;entryDx=0;entryDy=0;" edge="1" source="VTl_a38fpqqt_TvR1LLS-473" target="VTl_a38fpqqt_TvR1LLS-471" parent="1">
          <mxGeometry width="50" height="50" relative="1" as="geometry">
            <mxPoint x="11080" y="-20" as="sourcePoint" />
            <mxPoint x="11130" y="-70" as="targetPoint" />
            <Array as="points">
              <mxPoint x="11105" y="-100" />
              <mxPoint x="11078" y="-100" />
            </Array>
          </mxGeometry>
        </mxCell>
        <mxCell id="VTl_a38fpqqt_TvR1LLS-478" value="H_JCVB_window.hpp" style="rounded=1;whiteSpace=wrap;html=1;" vertex="1" parent="1">
          <mxGeometry x="11191" y="-370" width="150" height="60" as="geometry" />
        </mxCell>
        <mxCell id="VTl_a38fpqqt_TvR1LLS-479" value="" style="endArrow=classic;html=1;rounded=0;exitX=0.5;exitY=1;exitDx=0;exitDy=0;" edge="1" source="VTl_a38fpqqt_TvR1LLS-478" target="VTl_a38fpqqt_TvR1LLS-451" parent="1">
          <mxGeometry width="50" height="50" relative="1" as="geometry">
            <mxPoint x="11201" y="-210" as="sourcePoint" />
            <mxPoint x="11251" y="-260" as="targetPoint" />
          </mxGeometry>
        </mxCell>
        <mxCell id="VTl_a38fpqqt_TvR1LLS-480" value="H_JCVB_window.hpp" style="rounded=1;whiteSpace=wrap;html=1;" vertex="1" parent="1">
          <mxGeometry x="11920" y="-180" width="150" height="60" as="geometry" />
        </mxCell>
        <mxCell id="VTl_a38fpqqt_TvR1LLS-481" value="H_JCVB_device.hpp" style="rounded=1;whiteSpace=wrap;html=1;" vertex="1" parent="1">
          <mxGeometry x="11935" y="30" width="120" height="60" as="geometry" />
        </mxCell>
        <mxCell id="VTl_a38fpqqt_TvR1LLS-482" value="H_JCVB_pipeline.hpp" style="rounded=1;whiteSpace=wrap;html=1;" vertex="1" parent="1">
          <mxGeometry x="11910" y="200" width="170" height="60" as="geometry" />
        </mxCell>
        <mxCell id="VTl_a38fpqqt_TvR1LLS-483" value="" style="endArrow=classic;html=1;rounded=0;exitX=0.5;exitY=1;exitDx=0;exitDy=0;entryX=0.5;entryY=0;entryDx=0;entryDy=0;" edge="1" source="VTl_a38fpqqt_TvR1LLS-480" target="VTl_a38fpqqt_TvR1LLS-481" parent="1">
          <mxGeometry width="50" height="50" relative="1" as="geometry">
            <mxPoint x="12000" y="-30" as="sourcePoint" />
            <mxPoint x="12050" y="-80" as="targetPoint" />
          </mxGeometry>
        </mxCell>
        <mxCell id="VTl_a38fpqqt_TvR1LLS-484" value="" style="endArrow=classic;html=1;rounded=0;exitX=0.5;exitY=1;exitDx=0;exitDy=0;entryX=0.5;entryY=0;entryDx=0;entryDy=0;" edge="1" source="VTl_a38fpqqt_TvR1LLS-481" target="VTl_a38fpqqt_TvR1LLS-482" parent="1">
          <mxGeometry width="50" height="50" relative="1" as="geometry">
            <mxPoint x="11990" y="200" as="sourcePoint" />
            <mxPoint x="12040" y="150" as="targetPoint" />
          </mxGeometry>
        </mxCell>
        <mxCell id="VTl_a38fpqqt_TvR1LLS-485" value="" style="endArrow=classic;html=1;rounded=0;exitX=0.5;exitY=1;exitDx=0;exitDy=0;" edge="1" parent="1" source="VTl_a38fpqqt_TvR1LLS-395">
          <mxGeometry width="50" height="50" relative="1" as="geometry">
            <mxPoint x="9300" y="350" as="sourcePoint" />
            <mxPoint x="9630" y="360" as="targetPoint" />
            <Array as="points">
              <mxPoint x="9250" y="310" />
              <mxPoint x="9620" y="310" />
            </Array>
          </mxGeometry>
        </mxCell>
        <mxCell id="VTl_a38fpqqt_TvR1LLS-486" value="" style="endArrow=classic;html=1;rounded=0;exitX=0.5;exitY=1;exitDx=0;exitDy=0;entryX=0.383;entryY=-0.017;entryDx=0;entryDy=0;entryPerimeter=0;" edge="1" parent="1" source="VTl_a38fpqqt_TvR1LLS-401" target="VTl_a38fpqqt_TvR1LLS-394">
          <mxGeometry width="50" height="50" relative="1" as="geometry">
            <mxPoint x="9470" y="400" as="sourcePoint" />
            <mxPoint x="9700" y="300" as="targetPoint" />
            <Array as="points">
              <mxPoint x="9410" y="280" />
              <mxPoint x="9680" y="280" />
            </Array>
          </mxGeometry>
        </mxCell>
        <mxCell id="VTl_a38fpqqt_TvR1LLS-487" value="" style="endArrow=classic;html=1;rounded=0;exitX=0.5;exitY=1;exitDx=0;exitDy=0;entryX=0.5;entryY=0;entryDx=0;entryDy=0;" edge="1" parent="1" source="VTl_a38fpqqt_TvR1LLS-404" target="VTl_a38fpqqt_TvR1LLS-394">
          <mxGeometry width="50" height="50" relative="1" as="geometry">
            <mxPoint x="9850" y="360" as="sourcePoint" />
            <mxPoint x="9900" y="310" as="targetPoint" />
          </mxGeometry>
        </mxCell>
        <mxCell id="VTl_a38fpqqt_TvR1LLS-488" value="" style="endArrow=classic;html=1;rounded=0;exitX=0.5;exitY=1;exitDx=0;exitDy=0;entryX=0.627;entryY=0.039;entryDx=0;entryDy=0;entryPerimeter=0;" edge="1" parent="1" source="VTl_a38fpqqt_TvR1LLS-447" target="VTl_a38fpqqt_TvR1LLS-394">
          <mxGeometry width="50" height="50" relative="1" as="geometry">
            <mxPoint x="11340" y="300" as="sourcePoint" />
            <mxPoint x="10060" y="230" as="targetPoint" />
            <Array as="points">
              <mxPoint x="11350" y="290" />
              <mxPoint x="9753" y="290" />
            </Array>
          </mxGeometry>
        </mxCell>
        <mxCell id="VTl_a38fpqqt_TvR1LLS-489" value="" style="endArrow=classic;html=1;rounded=0;exitX=0.5;exitY=1;exitDx=0;exitDy=0;entryX=0.8;entryY=0.011;entryDx=0;entryDy=0;entryPerimeter=0;" edge="1" parent="1" target="VTl_a38fpqqt_TvR1LLS-394">
          <mxGeometry width="50" height="50" relative="1" as="geometry">
            <mxPoint x="11997" y="260" as="sourcePoint" />
            <mxPoint x="10400" y="362" as="targetPoint" />
            <Array as="points">
              <mxPoint x="11997" y="320" />
              <mxPoint x="9798" y="320" />
            </Array>
          </mxGeometry>
        </mxCell>
        <mxCell id="VTl_a38fpqqt_TvR1LLS-581" value="H_JCVB_window.hpp" style="rounded=1;whiteSpace=wrap;html=1;" vertex="1" parent="1">
          <mxGeometry x="3725" y="800" width="150" height="60" as="geometry" />
        </mxCell>
        <mxCell id="VTl_a38fpqqt_TvR1LLS-582" value="H_JCVB_device.hpp" style="rounded=1;whiteSpace=wrap;html=1;" vertex="1" parent="1">
          <mxGeometry x="3740" y="930" width="120" height="60" as="geometry" />
        </mxCell>
        <mxCell id="VTl_a38fpqqt_TvR1LLS-583" value="" style="endArrow=classic;html=1;rounded=0;exitX=0.5;exitY=1;exitDx=0;exitDy=0;" edge="1" parent="1" source="VTl_a38fpqqt_TvR1LLS-581" target="VTl_a38fpqqt_TvR1LLS-582">
          <mxGeometry width="50" height="50" relative="1" as="geometry">
            <mxPoint x="4210" y="840" as="sourcePoint" />
            <mxPoint x="4260" y="790" as="targetPoint" />
          </mxGeometry>
        </mxCell>
        <mxCell id="VTl_a38fpqqt_TvR1LLS-584" value="H_JCVB_model.hpp" style="rounded=1;whiteSpace=wrap;html=1;" vertex="1" parent="1">
          <mxGeometry x="3670" y="1270" width="170" height="60" as="geometry" />
        </mxCell>
        <mxCell id="VTl_a38fpqqt_TvR1LLS-586" value="H_JCVB_buffer.hpp" style="rounded=1;whiteSpace=wrap;html=1;" vertex="1" parent="1">
          <mxGeometry x="3635" y="1150" width="150" height="60" as="geometry" />
        </mxCell>
        <mxCell id="VTl_a38fpqqt_TvR1LLS-587" value="" style="endArrow=classic;html=1;rounded=0;exitX=0.5;exitY=1;exitDx=0;exitDy=0;entryX=0.25;entryY=0;entryDx=0;entryDy=0;" edge="1" parent="1" source="VTl_a38fpqqt_TvR1LLS-586" target="VTl_a38fpqqt_TvR1LLS-584">
          <mxGeometry width="50" height="50" relative="1" as="geometry">
            <mxPoint x="3620" y="1230" as="sourcePoint" />
            <mxPoint x="3670" y="1180" as="targetPoint" />
          </mxGeometry>
        </mxCell>
        <mxCell id="VTl_a38fpqqt_TvR1LLS-588" value="" style="endArrow=classic;html=1;rounded=0;exitX=0.5;exitY=1;exitDx=0;exitDy=0;entryX=0;entryY=0.5;entryDx=0;entryDy=0;" edge="1" parent="1" source="VTl_a38fpqqt_TvR1LLS-584" target="VTl_a38fpqqt_TvR1LLS-590">
          <mxGeometry width="50" height="50" relative="1" as="geometry">
            <mxPoint x="3860" y="1560" as="sourcePoint" />
            <mxPoint x="3905" y="1410" as="targetPoint" />
            <Array as="points">
              <mxPoint x="3755" y="1440" />
            </Array>
          </mxGeometry>
        </mxCell>
        <mxCell id="VTl_a38fpqqt_TvR1LLS-590" value="H_JCVB_mesh_renderer.hpp" style="rounded=1;whiteSpace=wrap;html=1;" vertex="1" parent="1">
          <mxGeometry x="3820" y="1410" width="170" height="60" as="geometry" />
        </mxCell>
        <mxCell id="VTl_a38fpqqt_TvR1LLS-591" value="H_JCVB_game_object.hpp" style="rounded=1;whiteSpace=wrap;html=1;" vertex="1" parent="1">
          <mxGeometry x="3830" y="1660" width="150" height="60" as="geometry" />
        </mxCell>
        <mxCell id="VTl_a38fpqqt_TvR1LLS-592" value="" style="endArrow=classic;html=1;rounded=0;exitX=0.5;exitY=1;exitDx=0;exitDy=0;" edge="1" parent="1" source="VTl_a38fpqqt_TvR1LLS-590" target="VTl_a38fpqqt_TvR1LLS-591">
          <mxGeometry width="50" height="50" relative="1" as="geometry">
            <mxPoint x="3860" y="1600" as="sourcePoint" />
            <mxPoint x="3910" y="1550" as="targetPoint" />
            <Array as="points">
              <mxPoint x="3905" y="1580" />
            </Array>
          </mxGeometry>
        </mxCell>
        <mxCell id="VTl_a38fpqqt_TvR1LLS-593" value="H_JCVB_component.hpp" style="rounded=1;whiteSpace=wrap;html=1;" vertex="1" parent="1">
          <mxGeometry x="3830" y="1810" width="150" height="60" as="geometry" />
        </mxCell>
        <mxCell id="VTl_a38fpqqt_TvR1LLS-594" value="" style="endArrow=classic;html=1;rounded=0;exitX=0.75;exitY=1;exitDx=0;exitDy=0;entryX=0.75;entryY=0;entryDx=0;entryDy=0;" edge="1" parent="1" source="VTl_a38fpqqt_TvR1LLS-591" target="VTl_a38fpqqt_TvR1LLS-593">
          <mxGeometry width="50" height="50" relative="1" as="geometry">
            <mxPoint x="3310" y="1510" as="sourcePoint" />
            <mxPoint x="3360" y="1460" as="targetPoint" />
          </mxGeometry>
        </mxCell>
        <mxCell id="VTl_a38fpqqt_TvR1LLS-595" value="" style="endArrow=classic;html=1;rounded=0;exitX=0.25;exitY=0;exitDx=0;exitDy=0;entryX=0.25;entryY=1;entryDx=0;entryDy=0;" edge="1" parent="1" source="VTl_a38fpqqt_TvR1LLS-593" target="VTl_a38fpqqt_TvR1LLS-591">
          <mxGeometry width="50" height="50" relative="1" as="geometry">
            <mxPoint x="3660" y="1530" as="sourcePoint" />
            <mxPoint x="3710" y="1480" as="targetPoint" />
          </mxGeometry>
        </mxCell>
        <mxCell id="VTl_a38fpqqt_TvR1LLS-596" value="H_JCVB_texture.hpp" style="rounded=1;whiteSpace=wrap;html=1;" vertex="1" parent="1">
          <mxGeometry x="4000" y="1270" width="150" height="60" as="geometry" />
        </mxCell>
        <mxCell id="VTl_a38fpqqt_TvR1LLS-597" value="" style="endArrow=classic;html=1;rounded=0;entryX=0.25;entryY=0;entryDx=0;entryDy=0;" edge="1" parent="1" target="VTl_a38fpqqt_TvR1LLS-591">
          <mxGeometry width="50" height="50" relative="1" as="geometry">
            <mxPoint x="3760" y="1440" as="sourcePoint" />
            <mxPoint x="3790" y="1540" as="targetPoint" />
            <Array as="points">
              <mxPoint x="3760" y="1560" />
              <mxPoint x="3870" y="1560" />
            </Array>
          </mxGeometry>
        </mxCell>
        <mxCell id="VTl_a38fpqqt_TvR1LLS-598" value="" style="endArrow=classic;html=1;rounded=0;entryX=0.5;entryY=0;entryDx=0;entryDy=0;" edge="1" parent="1" target="VTl_a38fpqqt_TvR1LLS-596">
          <mxGeometry width="50" height="50" relative="1" as="geometry">
            <mxPoint x="3800" y="1110" as="sourcePoint" />
            <mxPoint x="3910" y="1120" as="targetPoint" />
            <Array as="points">
              <mxPoint x="4075" y="1110" />
            </Array>
          </mxGeometry>
        </mxCell>
        <mxCell id="VTl_a38fpqqt_TvR1LLS-599" value="" style="endArrow=classic;html=1;rounded=0;exitX=0.5;exitY=1;exitDx=0;exitDy=0;entryX=0.75;entryY=0;entryDx=0;entryDy=0;" edge="1" parent="1" source="VTl_a38fpqqt_TvR1LLS-596" target="VTl_a38fpqqt_TvR1LLS-591">
          <mxGeometry width="50" height="50" relative="1" as="geometry">
            <mxPoint x="4090" y="1610" as="sourcePoint" />
            <mxPoint x="4140" y="1560" as="targetPoint" />
            <Array as="points">
              <mxPoint x="4075" y="1520" />
              <mxPoint x="3943" y="1520" />
            </Array>
          </mxGeometry>
        </mxCell>
        <mxCell id="VTl_a38fpqqt_TvR1LLS-600" value="H_first_app.hpp" style="rounded=1;whiteSpace=wrap;html=1;" vertex="1" parent="1">
          <mxGeometry x="2665" y="1270" width="120" height="60" as="geometry" />
        </mxCell>
        <mxCell id="VTl_a38fpqqt_TvR1LLS-603" value="H_JCVB_descriptors.hpp" style="rounded=1;whiteSpace=wrap;html=1;" vertex="1" parent="1">
          <mxGeometry x="2980" y="1150" width="150" height="60" as="geometry" />
        </mxCell>
        <mxCell id="VTl_a38fpqqt_TvR1LLS-604" value="" style="endArrow=classic;html=1;rounded=0;entryX=0.5;entryY=0;entryDx=0;entryDy=0;" edge="1" parent="1" target="VTl_a38fpqqt_TvR1LLS-603">
          <mxGeometry width="50" height="50" relative="1" as="geometry">
            <mxPoint x="3800" y="1110" as="sourcePoint" />
            <mxPoint x="3600" y="1100" as="targetPoint" />
            <Array as="points">
              <mxPoint x="3055" y="1110" />
            </Array>
          </mxGeometry>
        </mxCell>
        <mxCell id="VTl_a38fpqqt_TvR1LLS-605" value="" style="endArrow=classic;html=1;rounded=0;entryX=0.5;entryY=0;entryDx=0;entryDy=0;" edge="1" parent="1" target="VTl_a38fpqqt_TvR1LLS-600">
          <mxGeometry width="50" height="50" relative="1" as="geometry">
            <mxPoint x="3070" y="1110" as="sourcePoint" />
            <mxPoint x="3135" y="970" as="targetPoint" />
            <Array as="points">
              <mxPoint x="2725" y="1110" />
            </Array>
          </mxGeometry>
        </mxCell>
        <mxCell id="VTl_a38fpqqt_TvR1LLS-606" value="" style="endArrow=classic;html=1;rounded=0;exitX=0;exitY=0.5;exitDx=0;exitDy=0;entryX=0.5;entryY=1;entryDx=0;entryDy=0;" edge="1" parent="1" source="VTl_a38fpqqt_TvR1LLS-591" target="VTl_a38fpqqt_TvR1LLS-600">
          <mxGeometry width="50" height="50" relative="1" as="geometry">
            <mxPoint x="3625" y="1690" as="sourcePoint" />
            <mxPoint x="3385" y="1710" as="targetPoint" />
            <Array as="points">
              <mxPoint x="2725" y="1690" />
            </Array>
          </mxGeometry>
        </mxCell>
        <mxCell id="VTl_a38fpqqt_TvR1LLS-608" value="" style="endArrow=classic;html=1;rounded=0;exitX=0;exitY=0.5;exitDx=0;exitDy=0;entryX=1;entryY=0.25;entryDx=0;entryDy=0;" edge="1" parent="1" source="VTl_a38fpqqt_TvR1LLS-603" target="VTl_a38fpqqt_TvR1LLS-600">
          <mxGeometry width="50" height="50" relative="1" as="geometry">
            <mxPoint x="3560" y="1490" as="sourcePoint" />
            <mxPoint x="3610" y="1440" as="targetPoint" />
            <Array as="points">
              <mxPoint x="2960" y="1180" />
              <mxPoint x="2960" y="1290" />
            </Array>
          </mxGeometry>
        </mxCell>
        <mxCell id="VTl_a38fpqqt_TvR1LLS-609" value="H_JCVB_renderer.hpp" style="rounded=1;whiteSpace=wrap;html=1;" vertex="1" parent="1">
          <mxGeometry x="3240" y="990" width="150" height="60" as="geometry" />
        </mxCell>
        <mxCell id="VTl_a38fpqqt_TvR1LLS-610" value="" style="endArrow=classic;html=1;rounded=0;" edge="1" parent="1">
          <mxGeometry width="50" height="50" relative="1" as="geometry">
            <mxPoint x="3315" y="1110" as="sourcePoint" />
            <mxPoint x="3315" y="1050" as="targetPoint" />
          </mxGeometry>
        </mxCell>
        <mxCell id="VTl_a38fpqqt_TvR1LLS-612" value="" style="endArrow=classic;html=1;rounded=0;entryX=0.25;entryY=0;entryDx=0;entryDy=0;exitX=0;exitY=0.5;exitDx=0;exitDy=0;" edge="1" parent="1" source="VTl_a38fpqqt_TvR1LLS-609" target="VTl_a38fpqqt_TvR1LLS-600">
          <mxGeometry width="50" height="50" relative="1" as="geometry">
            <mxPoint x="3035" y="1020" as="sourcePoint" />
            <mxPoint x="2515" y="1010" as="targetPoint" />
            <Array as="points">
              <mxPoint x="2695" y="1020" />
            </Array>
          </mxGeometry>
        </mxCell>
        <mxCell id="VTl_a38fpqqt_TvR1LLS-613" value="H_JCVB_swap_chain.hpp" style="rounded=1;whiteSpace=wrap;html=1;" vertex="1" parent="1">
          <mxGeometry x="3240" y="800" width="150" height="60" as="geometry" />
        </mxCell>
        <mxCell id="VTl_a38fpqqt_TvR1LLS-614" value="" style="endArrow=classic;html=1;rounded=0;exitX=0.5;exitY=1;exitDx=0;exitDy=0;" edge="1" parent="1" source="VTl_a38fpqqt_TvR1LLS-613" target="VTl_a38fpqqt_TvR1LLS-609">
          <mxGeometry width="50" height="50" relative="1" as="geometry">
            <mxPoint x="3310" y="980" as="sourcePoint" />
            <mxPoint x="3360" y="930" as="targetPoint" />
          </mxGeometry>
        </mxCell>
        <mxCell id="VTl_a38fpqqt_TvR1LLS-615" value="" style="endArrow=classic;html=1;rounded=0;exitX=0;exitY=0.5;exitDx=0;exitDy=0;entryX=1;entryY=0.5;entryDx=0;entryDy=0;" edge="1" parent="1" source="VTl_a38fpqqt_TvR1LLS-581" target="VTl_a38fpqqt_TvR1LLS-609">
          <mxGeometry width="50" height="50" relative="1" as="geometry">
            <mxPoint x="3480" y="920" as="sourcePoint" />
            <mxPoint x="3530" y="870" as="targetPoint" />
            <Array as="points">
              <mxPoint x="3560" y="830" />
              <mxPoint x="3560" y="1020" />
            </Array>
          </mxGeometry>
        </mxCell>
        <mxCell id="VTl_a38fpqqt_TvR1LLS-617" value="" style="endArrow=classic;html=1;rounded=0;entryX=0.5;entryY=0;entryDx=0;entryDy=0;" edge="1" parent="1" target="VTl_a38fpqqt_TvR1LLS-586">
          <mxGeometry width="50" height="50" relative="1" as="geometry">
            <mxPoint x="3710" y="1110" as="sourcePoint" />
            <mxPoint x="3540" y="1170" as="targetPoint" />
          </mxGeometry>
        </mxCell>
        <mxCell id="VTl_a38fpqqt_TvR1LLS-618" value="" style="endArrow=classic;html=1;rounded=0;entryX=0.75;entryY=0;entryDx=0;entryDy=0;" edge="1" parent="1" target="VTl_a38fpqqt_TvR1LLS-584">
          <mxGeometry width="50" height="50" relative="1" as="geometry">
            <mxPoint x="3840" y="1110" as="sourcePoint" />
            <mxPoint x="3900" y="1200" as="targetPoint" />
            <Array as="points">
              <mxPoint x="3840" y="1230" />
              <mxPoint x="3798" y="1230" />
            </Array>
          </mxGeometry>
        </mxCell>
        <mxCell id="VTl_a38fpqqt_TvR1LLS-620" value="" style="endArrow=none;html=1;rounded=0;entryX=0.5;entryY=1;entryDx=0;entryDy=0;" edge="1" parent="1" target="VTl_a38fpqqt_TvR1LLS-582">
          <mxGeometry width="50" height="50" relative="1" as="geometry">
            <mxPoint x="3800" y="1110" as="sourcePoint" />
            <mxPoint x="3860" y="1050" as="targetPoint" />
          </mxGeometry>
        </mxCell>
        <mxCell id="VTl_a38fpqqt_TvR1LLS-621" value="H_JCVB_frame_info.hpp" style="rounded=1;whiteSpace=wrap;html=1;" vertex="1" parent="1">
          <mxGeometry x="3050" y="1290" width="150" height="60" as="geometry" />
        </mxCell>
        <mxCell id="VTl_a38fpqqt_TvR1LLS-622" value="" style="endArrow=classic;html=1;rounded=0;exitX=1;exitY=0.5;exitDx=0;exitDy=0;entryX=0.25;entryY=0;entryDx=0;entryDy=0;" edge="1" parent="1" source="VTl_a38fpqqt_TvR1LLS-603" target="VTl_a38fpqqt_TvR1LLS-621">
          <mxGeometry width="50" height="50" relative="1" as="geometry">
            <mxPoint x="3290" y="1290" as="sourcePoint" />
            <mxPoint x="3340" y="1240" as="targetPoint" />
            <Array as="points">
              <mxPoint x="3168" y="1180" />
              <mxPoint x="3170" y="1240" />
              <mxPoint x="3080" y="1240" />
            </Array>
          </mxGeometry>
        </mxCell>
        <mxCell id="VTl_a38fpqqt_TvR1LLS-623" value="H_JCVB_camera.hpp" style="rounded=1;whiteSpace=wrap;html=1;" vertex="1" parent="1">
          <mxGeometry x="3250" y="1150" width="120" height="60" as="geometry" />
        </mxCell>
        <mxCell id="VTl_a38fpqqt_TvR1LLS-624" value="" style="endArrow=classic;html=1;rounded=0;exitX=0.5;exitY=1;exitDx=0;exitDy=0;entryX=0.931;entryY=-0.029;entryDx=0;entryDy=0;entryPerimeter=0;" edge="1" parent="1" source="VTl_a38fpqqt_TvR1LLS-623" target="VTl_a38fpqqt_TvR1LLS-621">
          <mxGeometry width="50" height="50" relative="1" as="geometry">
            <mxPoint x="3520" y="1400" as="sourcePoint" />
            <mxPoint x="3570" y="1350" as="targetPoint" />
            <Array as="points">
              <mxPoint x="3310" y="1240" />
              <mxPoint x="3200" y="1240" />
            </Array>
          </mxGeometry>
        </mxCell>
        <mxCell id="VTl_a38fpqqt_TvR1LLS-626" value="" style="endArrow=classic;html=1;rounded=0;entryX=0.5;entryY=1;entryDx=0;entryDy=0;" edge="1" parent="1" target="VTl_a38fpqqt_TvR1LLS-621">
          <mxGeometry width="50" height="50" relative="1" as="geometry">
            <mxPoint x="3120" y="1690" as="sourcePoint" />
            <mxPoint x="3440" y="1560" as="targetPoint" />
          </mxGeometry>
        </mxCell>
        <mxCell id="VTl_a38fpqqt_TvR1LLS-627" value="H_JCVB_pipeline.hpp" style="rounded=1;whiteSpace=wrap;html=1;" vertex="1" parent="1">
          <mxGeometry x="3490" y="1410" width="170" height="60" as="geometry" />
        </mxCell>
        <mxCell id="VTl_a38fpqqt_TvR1LLS-628" value="" style="endArrow=classic;html=1;rounded=0;entryX=0.5;entryY=0;entryDx=0;entryDy=0;" edge="1" parent="1" target="VTl_a38fpqqt_TvR1LLS-627">
          <mxGeometry width="50" height="50" relative="1" as="geometry">
            <mxPoint x="3575" y="1110" as="sourcePoint" />
            <mxPoint x="3610" y="1290" as="targetPoint" />
          </mxGeometry>
        </mxCell>
        <mxCell id="VTl_a38fpqqt_TvR1LLS-629" value="H_JCVB_utils.hpp" style="rounded=1;whiteSpace=wrap;html=1;" vertex="1" parent="1">
          <mxGeometry x="2970" y="800" width="150" height="60" as="geometry" />
        </mxCell>
        <mxCell id="VTl_a38fpqqt_TvR1LLS-630" value="H_keyboard_movement_controller.hpp" style="rounded=1;whiteSpace=wrap;html=1;" vertex="1" parent="1">
          <mxGeometry x="4320" y="1270" width="260" height="60" as="geometry" />
        </mxCell>
        <mxCell id="VTl_a38fpqqt_TvR1LLS-631" value="" style="endArrow=classic;html=1;rounded=0;exitX=1;exitY=0.5;exitDx=0;exitDy=0;entryX=0.5;entryY=0;entryDx=0;entryDy=0;" edge="1" parent="1" source="VTl_a38fpqqt_TvR1LLS-581" target="VTl_a38fpqqt_TvR1LLS-630">
          <mxGeometry width="50" height="50" relative="1" as="geometry">
            <mxPoint x="4080" y="850" as="sourcePoint" />
            <mxPoint x="4130" y="800" as="targetPoint" />
            <Array as="points">
              <mxPoint x="4450" y="840" />
            </Array>
          </mxGeometry>
        </mxCell>
        <mxCell id="VTl_a38fpqqt_TvR1LLS-632" value="" style="endArrow=classic;html=1;rounded=0;exitX=1;exitY=0.5;exitDx=0;exitDy=0;entryX=0.5;entryY=1;entryDx=0;entryDy=0;" edge="1" parent="1" source="VTl_a38fpqqt_TvR1LLS-591" target="VTl_a38fpqqt_TvR1LLS-630">
          <mxGeometry width="50" height="50" relative="1" as="geometry">
            <mxPoint x="4110" y="1670" as="sourcePoint" />
            <mxPoint x="4160" y="1620" as="targetPoint" />
            <Array as="points">
              <mxPoint x="4450" y="1700" />
            </Array>
          </mxGeometry>
        </mxCell>
        <mxCell id="VTl_a38fpqqt_TvR1LLS-633" value="Render System Headers" style="rounded=1;whiteSpace=wrap;html=1;" vertex="1" parent="1">
          <mxGeometry x="3260" y="1580" width="260" height="60" as="geometry" />
        </mxCell>
        <mxCell id="VTl_a38fpqqt_TvR1LLS-634" value="" style="endArrow=classic;html=1;rounded=0;exitX=1;exitY=0.5;exitDx=0;exitDy=0;entryX=0.25;entryY=0;entryDx=0;entryDy=0;" edge="1" parent="1" source="VTl_a38fpqqt_TvR1LLS-621" target="VTl_a38fpqqt_TvR1LLS-633">
          <mxGeometry width="50" height="50" relative="1" as="geometry">
            <mxPoint x="3310" y="1340" as="sourcePoint" />
            <mxPoint x="3360" y="1290" as="targetPoint" />
            <Array as="points">
              <mxPoint x="3330" y="1320" />
            </Array>
          </mxGeometry>
        </mxCell>
        <mxCell id="VTl_a38fpqqt_TvR1LLS-635" value="" style="endArrow=classic;html=1;rounded=0;exitX=0.75;exitY=1;exitDx=0;exitDy=0;" edge="1" parent="1" source="VTl_a38fpqqt_TvR1LLS-623" target="VTl_a38fpqqt_TvR1LLS-633">
          <mxGeometry width="50" height="50" relative="1" as="geometry">
            <mxPoint x="3350" y="1380" as="sourcePoint" />
            <mxPoint x="3400" y="1330" as="targetPoint" />
            <Array as="points">
              <mxPoint x="3340" y="1270" />
              <mxPoint x="3400" y="1270" />
            </Array>
          </mxGeometry>
        </mxCell>
        <mxCell id="VTl_a38fpqqt_TvR1LLS-636" value="" style="endArrow=classic;html=1;rounded=0;exitX=0.25;exitY=1;exitDx=0;exitDy=0;entryX=0.75;entryY=0;entryDx=0;entryDy=0;" edge="1" parent="1" source="VTl_a38fpqqt_TvR1LLS-627" target="VTl_a38fpqqt_TvR1LLS-633">
          <mxGeometry width="50" height="50" relative="1" as="geometry">
            <mxPoint x="3590" y="1550" as="sourcePoint" />
            <mxPoint x="3640" y="1500" as="targetPoint" />
            <Array as="points">
              <mxPoint x="3530" y="1520" />
              <mxPoint x="3455" y="1520" />
            </Array>
          </mxGeometry>
        </mxCell>
        <mxCell id="VTl_a38fpqqt_TvR1LLS-638" value="" style="endArrow=classic;html=1;rounded=0;entryX=0.5;entryY=1;entryDx=0;entryDy=0;" edge="1" parent="1" target="VTl_a38fpqqt_TvR1LLS-633">
          <mxGeometry width="50" height="50" relative="1" as="geometry">
            <mxPoint x="3390" y="1690" as="sourcePoint" />
            <mxPoint x="3420" y="1750" as="targetPoint" />
          </mxGeometry>
        </mxCell>
        <mxCell id="VTl_a38fpqqt_TvR1LLS-640" value="" style="endArrow=classic;html=1;rounded=0;entryX=0.675;entryY=-0.029;entryDx=0;entryDy=0;entryPerimeter=0;" edge="1" parent="1" target="VTl_a38fpqqt_TvR1LLS-633">
          <mxGeometry width="50" height="50" relative="1" as="geometry">
            <mxPoint x="3450" y="1110" as="sourcePoint" />
            <mxPoint x="3520" y="1190" as="targetPoint" />
          </mxGeometry>
        </mxCell>
        <mxCell id="VTl_a38fpqqt_TvR1LLS-642" value="" style="endArrow=classic;html=1;rounded=0;exitX=1;exitY=0.25;exitDx=0;exitDy=0;entryX=0.625;entryY=0.019;entryDx=0;entryDy=0;entryPerimeter=0;" edge="1" parent="1" source="VTl_a38fpqqt_TvR1LLS-603" target="VTl_a38fpqqt_TvR1LLS-633">
          <mxGeometry width="50" height="50" relative="1" as="geometry">
            <mxPoint x="3140" y="1160" as="sourcePoint" />
            <mxPoint x="3430" y="1130" as="targetPoint" />
            <Array as="points">
              <mxPoint x="3200" y="1130" />
              <mxPoint x="3423" y="1130" />
            </Array>
          </mxGeometry>
        </mxCell>
        <mxCell id="VTl_a38fpqqt_TvR1LLS-643" value="Only For Texture Render System" style="edgeLabel;html=1;align=center;verticalAlign=middle;resizable=0;points=[];" vertex="1" connectable="0" parent="VTl_a38fpqqt_TvR1LLS-642">
          <mxGeometry x="-0.3522" y="3" relative="1" as="geometry">
            <mxPoint x="-1" as="offset" />
          </mxGeometry>
        </mxCell>
      </root>
    </mxGraphModel>
  </diagram>
</mxfile>
